<?xml version="1.0" encoding="UTF-8"?>
<svg id="Layer_2" xmlns="http://www.w3.org/2000/svg" viewBox="0 0 502.8 18.7">
  <defs>
    <style>
      .cls-1 {
        fill: #ea2126;
      }

      .cls-2 {
        fill: #231f20;
      }

      .cls-3 {
        fill: #fff;
      }
    </style>
  </defs>
  <g id="Layer_1-2" data-name="Layer_1">
    <g>
      <polygon class="cls-1" points="469 18.7 484.1 18.7 502.8 0 487.7 0 469 18.7"/>
      <polygon class="cls-1" points="451.1 18.7 466.2 18.7 484.8 0 469.7 0 451.1 18.7"/>
      <polygon class="cls-2" points="466.2 .3 448.2 18.4 273.2 18.4 273.2 14 274 14 287.7 .3 466.2 .3"/>
      <rect class="cls-2" y="14" width="273.2" height="4.4"/>
      <g>
        <path class="cls-3" d="M316.7,11.8l1-4h.9l-1.5,5.3h-.7l-1.3-4-1.2,4h-.7l-1.5-5.3h.9l1,4,1.2-4h.7l1.3,4Z"/>
        <path class="cls-3" d="M324.2,11.8l1-4h.9l-1.5,5.3h-.7l-1.3-4-1.2,4h-.7l-1.5-5.3h.9l1,4,1.2-4h.7l1.3,4Z"/>
        <path class="cls-3" d="M331.7,11.8l1-4h.9l-1.5,5.3h-.7l-1.3-4-1.2,4h-.7l-1.5-5.3h.9l1,4,1.2-4h.7l1.3,4Z"/>
        <path class="cls-3" d="M334,12.5c0-.2,0-.3.1-.4,0-.1.2-.2.4-.2s.3,0,.4.2c0,.1.1.2.1.4s0,.3-.1.4c0,.1-.2.2-.4.2s-.3,0-.4-.2c0-.1-.1-.2-.1-.4Z"/>
        <path class="cls-3" d="M337.8,6.5v1.3h1v.7h-1v3.3c0,.2,0,.4.1.5,0,.1.2.2.4.2s.2,0,.4,0v.7c-.2,0-.5,0-.7,0-.4,0-.7-.1-.9-.4s-.3-.6-.3-1v-3.3h-1v-.7h1v-1.3h.9Z"/>
        <path class="cls-3" d="M342.4,8.5c-.1,0-.3,0-.4,0-.6,0-1,.3-1.2.8v3.8h-.9v-5.3h.9v.6c.3-.5.7-.7,1.3-.7s.3,0,.4,0v.8Z"/>
        <path class="cls-3" d="M343.2,6.3c0-.1,0-.3.1-.4,0-.1.2-.2.4-.2s.3,0,.4.2.1.2.1.4,0,.3-.1.4-.2.1-.4.1-.3,0-.4-.1c0,0-.1-.2-.1-.4ZM344.2,13h-.9v-5.3h.9v5.3Z"/>
        <path class="cls-3" d="M346.1,13v-4.6h-.8v-.7h.8v-.5c0-.6.2-1,.5-1.3s.7-.5,1.3-.5.4,0,.6,0v.7c-.2,0-.4,0-.5,0-.3,0-.5,0-.7.3-.2.2-.2.4-.2.7v.6h1.1v.7h-1.1v4.6h-.9Z"/>
        <path class="cls-3" d="M348.9,10.3c0-.5.1-1,.3-1.4.2-.4.5-.7.8-1,.4-.2.8-.3,1.2-.3.7,0,1.3.2,1.7.7.4.5.7,1.2.7,2h0c0,.6,0,1-.3,1.4-.2.4-.5.7-.8,1-.4.2-.8.3-1.3.3-.7,0-1.3-.2-1.7-.7-.4-.5-.7-1.2-.7-2h0ZM349.8,10.4c0,.6.1,1.1.4,1.4.3.4.6.5,1.1.5s.8-.2,1.1-.5c.3-.4.4-.9.4-1.5s-.1-1-.4-1.4c-.3-.4-.6-.5-1.1-.5s-.8.2-1.1.5-.4.9-.4,1.5Z"/>
        <path class="cls-3" d="M357.4,8.5c-.1,0-.3,0-.4,0-.6,0-1,.3-1.2.8v3.8h-.9v-5.3h.9v.6c.3-.5.7-.7,1.3-.7s.3,0,.4,0v.8Z"/>
        <path class="cls-3" d="M360.2,12.4c.3,0,.6,0,.8-.3s.4-.4.4-.7h.9c0,.3-.1.6-.3.9s-.4.5-.8.7c-.3.2-.7.2-1,.2-.7,0-1.3-.2-1.7-.7-.4-.5-.6-1.1-.6-2v-.2c0-.5,0-1,.3-1.4s.5-.7.8-.9c.4-.2.8-.3,1.3-.3s1.1.2,1.5.5c.4.4.6.8.6,1.4h-.9c0-.3-.2-.6-.4-.8-.2-.2-.5-.3-.9-.3s-.8.2-1.1.5c-.3.3-.4.8-.4,1.4v.2c0,.6.1,1.1.4,1.4s.6.5,1.1.5Z"/>
        <path class="cls-3" d="M365.6,13.1c-.7,0-1.3-.2-1.7-.7-.4-.5-.7-1.1-.7-1.9v-.2c0-.5.1-1,.3-1.4.2-.4.5-.7.8-1,.4-.2.8-.3,1.2-.3.7,0,1.2.2,1.6.7s.6,1.1.6,1.9v.4h-3.6c0,.5.2.9.5,1.3.3.3.7.5,1.1.5s.6,0,.8-.2.4-.3.6-.5l.6.4c-.4.7-1.1,1-2,1ZM365.4,8.4c-.4,0-.7.1-.9.4-.2.3-.4.6-.5,1.1h2.6c0-.5-.1-.9-.4-1.1-.2-.3-.5-.4-.9-.4Z"/>
        <path class="cls-3" d="M370.8,12.4c.3,0,.6,0,.8-.3s.4-.4.4-.7h.9c0,.3-.1.6-.3.9s-.4.5-.8.7c-.3.2-.7.2-1,.2-.7,0-1.3-.2-1.7-.7-.4-.5-.6-1.1-.6-2v-.2c0-.5,0-1,.3-1.4s.5-.7.8-.9c.4-.2.8-.3,1.3-.3s1.1.2,1.5.5c.4.4.6.8.6,1.4h-.9c0-.3-.2-.6-.4-.8-.2-.2-.5-.3-.9-.3s-.8.2-1.1.5c-.3.3-.4.8-.4,1.4v.2c0,.6.1,1.1.4,1.4s.6.5,1.1.5Z"/>
        <path class="cls-3" d="M373.7,10.3c0-.5.1-1,.3-1.4.2-.4.5-.7.8-1,.4-.2.8-.3,1.2-.3.7,0,1.3.2,1.7.7.4.5.7,1.2.7,2h0c0,.6,0,1-.3,1.4-.2.4-.5.7-.8,1-.4.2-.8.3-1.3.3-.7,0-1.3-.2-1.7-.7-.4-.5-.7-1.2-.7-2h0ZM374.6,10.4c0,.6.1,1.1.4,1.4.3.4.6.5,1.1.5s.8-.2,1.1-.5c.3-.4.4-.9.4-1.5s-.1-1-.4-1.4c-.3-.4-.6-.5-1.1-.5s-.8.2-1.1.5-.4.9-.4,1.5Z"/>
        <path class="cls-3" d="M380.4,7.7v.6c.4-.5.9-.7,1.6-.7s1.2.3,1.5.8c.2-.3.4-.5.7-.6.3-.2.6-.2,1-.2,1.2,0,1.7.6,1.8,1.8v3.5h-.9v-3.5c0-.4,0-.7-.3-.8-.2-.2-.5-.3-.9-.3s-.6.1-.8.3c-.2.2-.3.5-.4.8v3.5h-.9v-3.5c0-.8-.4-1.2-1.1-1.2s-1,.3-1.2.8v3.9h-.9v-5.3h.9Z"/>
        <path class="cls-3" d="M392.8,10.4c0,.8-.2,1.5-.6,1.9s-.9.7-1.5.7-1.1-.2-1.5-.6v2.5h-.9v-7.3h.8v.6c.4-.5.9-.7,1.6-.7s1.1.2,1.5.7c.4.5.6,1.1.6,2h0ZM391.9,10.3c0-.6-.1-1.1-.4-1.4s-.6-.5-1-.5-1,.2-1.2.7v2.5c.3.5.7.7,1.2.7s.8-.2,1-.5c.3-.3.4-.9.4-1.5Z"/>
        <path class="cls-3" d="M397.2,12.5c-.4.4-.9.6-1.5.6s-1-.2-1.3-.5c-.3-.3-.4-.8-.4-1.5v-3.4h.9v3.4c0,.8.3,1.2,1,1.2s1.1-.3,1.4-.8v-3.8h.9v5.3h-.9v-.5Z"/>
        <path class="cls-3" d="M400.7,6.5v1.3h1v.7h-1v3.3c0,.2,0,.4.1.5,0,.1.2.2.4.2s.2,0,.4,0v.7c-.2,0-.5,0-.7,0-.4,0-.7-.1-.9-.4s-.3-.6-.3-1v-3.3h-1v-.7h1v-1.3h.9Z"/>
        <path class="cls-3" d="M404.9,13.1c-.7,0-1.3-.2-1.7-.7-.4-.5-.7-1.1-.7-1.9v-.2c0-.5.1-1,.3-1.4.2-.4.5-.7.8-1,.4-.2.8-.3,1.2-.3.7,0,1.2.2,1.6.7s.6,1.1.6,1.9v.4h-3.6c0,.5.2.9.5,1.3.3.3.7.5,1.1.5s.6,0,.8-.2.4-.3.6-.5l.6.4c-.4.7-1.1,1-2,1ZM404.8,8.4c-.4,0-.7.1-.9.4-.2.3-.4.6-.5,1.1h2.6c0-.5-.1-.9-.4-1.1-.2-.3-.5-.4-.9-.4Z"/>
        <path class="cls-3" d="M410.6,8.5c-.1,0-.3,0-.4,0-.6,0-1,.3-1.2.8v3.8h-.9v-5.3h.9v.6c.3-.5.7-.7,1.3-.7s.3,0,.4,0v.8Z"/>
        <path class="cls-3" d="M414.5,11.6c0-.2,0-.4-.3-.6-.2-.1-.5-.3-1-.3-.5,0-.8-.2-1.1-.4-.3-.1-.5-.3-.6-.5-.1-.2-.2-.4-.2-.7,0-.4.2-.8.5-1.1.4-.3.8-.4,1.4-.4s1.1.2,1.5.5c.4.3.6.7.6,1.2h-.9c0-.2-.1-.5-.3-.6-.2-.2-.5-.3-.8-.3s-.6,0-.8.2-.3.3-.3.6,0,.4.3.5.5.2.9.3c.5.1.8.2,1.1.4s.5.3.6.5c.1.2.2.4.2.7,0,.5-.2.9-.6,1.1-.4.3-.9.4-1.5.4s-.8,0-1.1-.2-.6-.4-.8-.6c-.2-.3-.3-.6-.3-.9h.9c0,.3.1.5.4.7.2.2.5.3.9.3s.6,0,.8-.2c.2-.1.3-.3.3-.6Z"/>
        <path class="cls-3" d="M416.6,12.5c0-.2,0-.3.1-.4,0-.1.2-.2.4-.2s.3,0,.4.2c0,.1.1.2.1.4s0,.3-.1.4c0,.1-.2.2-.4.2s-.3,0-.4-.2c0-.1-.1-.2-.1-.4Z"/>
        <path class="cls-3" d="M421.3,12.4c.3,0,.6,0,.8-.3s.4-.4.4-.7h.9c0,.3-.1.6-.3.9s-.4.5-.8.7c-.3.2-.7.2-1,.2-.7,0-1.3-.2-1.7-.7-.4-.5-.6-1.1-.6-2v-.2c0-.5,0-1,.3-1.4s.5-.7.8-.9c.4-.2.8-.3,1.3-.3s1.1.2,1.5.5c.4.4.6.8.6,1.4h-.9c0-.3-.2-.6-.4-.8-.2-.2-.5-.3-.9-.3s-.8.2-1.1.5c-.3.3-.4.8-.4,1.4v.2c0,.6.1,1.1.4,1.4s.6.5,1.1.5Z"/>
        <path class="cls-3" d="M424.2,10.3c0-.5.1-1,.3-1.4.2-.4.5-.7.8-1,.4-.2.8-.3,1.2-.3.7,0,1.3.2,1.7.7.4.5.7,1.2.7,2h0c0,.6,0,1-.3,1.4-.2.4-.5.7-.8,1-.4.2-.8.3-1.3.3-.7,0-1.3-.2-1.7-.7-.4-.5-.7-1.2-.7-2h0ZM425.1,10.4c0,.6.1,1.1.4,1.4.3.4.6.5,1.1.5s.8-.2,1.1-.5c.3-.4.4-.9.4-1.5s-.1-1-.4-1.4c-.3-.4-.6-.5-1.1-.5s-.8.2-1.1.5-.4.9-.4,1.5Z"/>
        <path class="cls-3" d="M431,7.7v.6c.4-.5.9-.7,1.6-.7s1.2.3,1.5.8c.2-.3.4-.5.7-.6.3-.2.6-.2,1-.2,1.2,0,1.7.6,1.8,1.8v3.5h-.9v-3.5c0-.4,0-.7-.3-.8-.2-.2-.5-.3-.9-.3s-.6.1-.8.3c-.2.2-.3.5-.4.8v3.5h-.9v-3.5c0-.8-.4-1.2-1.1-1.2s-1,.3-1.2.8v3.9h-.9v-5.3h.9Z"/>
      </g>
    </g>
  </g>
</svg>