<?xml version="1.0" encoding="UTF-8"?>
<svg id="Layer_2" xmlns="http://www.w3.org/2000/svg" viewBox="0 0 47.7 47.7">
  <g id="Layer_1-2" data-name="Layer_1">
    <g>
      <rect y="24.7" width="1.6" height="1.6"/>
      <rect y="29.6" width="1.6" height="1.6"/>
      <rect y="31.3" width="1.6" height="1.6"/>
      <rect x="1.6" y="13.2" width="1.6" height="1.6"/>
      <rect x="1.6" y="21.4" width="1.6" height="1.6"/>
      <rect x="1.6" y="23" width="1.6" height="1.6"/>
      <rect x="1.6" y="24.7" width="1.6" height="1.6"/>
      <rect x="1.6" y="32.9" width="1.6" height="1.6"/>
      <rect x="3.3" y="14.8" width="1.6" height="1.6"/>
      <rect x="3.3" y="16.5" width="1.6" height="1.6"/>
      <rect x="3.3" y="18.1" width="1.6" height="1.6"/>
      <rect x="3.3" y="21.4" width="1.6" height="1.6"/>
      <rect x="3.3" y="24.7" width="1.6" height="1.6"/>
      <rect x="3.3" y="26.3" width="1.6" height="1.6"/>
      <rect x="3.3" y="32.9" width="1.6" height="1.6"/>
      <rect x="4.9" y="13.2" width="1.6" height="1.6"/>
      <rect x="4.9" y="14.8" width="1.6" height="1.6"/>
      <rect x="4.9" y="18.1" width="1.6" height="1.6"/>
      <rect x="4.9" y="19.7" width="1.6" height="1.6"/>
      <rect x="4.9" y="23" width="1.6" height="1.6"/>
      <rect x="4.9" y="28" width="1.6" height="1.6"/>
      <rect x="4.9" y="31.3" width="1.6" height="1.6"/>
      <rect x="4.9" y="32.9" width="1.6" height="1.6"/>
      <rect x="6.6" y="13.2" width="1.6" height="1.6"/>
      <rect x="6.6" y="16.5" width="1.6" height="1.6"/>
      <rect x="6.6" y="18.1" width="1.6" height="1.6"/>
      <rect x="6.6" y="24.7" width="1.6" height="1.6"/>
      <rect x="6.6" y="26.3" width="1.6" height="1.6"/>
      <rect x="6.6" y="28" width="1.6" height="1.6"/>
      <rect x="6.6" y="31.3" width="1.6" height="1.6"/>
      <rect x="6.6" y="32.9" width="1.6" height="1.6"/>
      <rect x="8.2" y="14.8" width="1.6" height="1.6"/>
      <rect x="8.2" y="18.1" width="1.6" height="1.6"/>
      <rect x="8.2" y="19.7" width="1.6" height="1.6"/>
      <rect x="8.2" y="21.4" width="1.6" height="1.6"/>
      <rect x="8.2" y="28" width="1.6" height="1.6"/>
      <rect x="8.2" y="29.6" width="1.6" height="1.6"/>
      <rect x="8.2" y="32.9" width="1.6" height="1.6"/>
      <rect x="9.9" y="13.2" width="1.6" height="1.6"/>
      <rect x="9.9" y="16.5" width="1.6" height="1.6"/>
      <rect x="9.9" y="19.7" width="1.6" height="1.6"/>
      <rect x="9.9" y="23" width="1.6" height="1.6"/>
      <rect x="9.9" y="26.3" width="1.6" height="1.6"/>
      <rect x="9.9" y="29.6" width="1.6" height="1.6"/>
      <rect x="9.9" y="32.9" width="1.6" height="1.6"/>
      <rect x="11.5" y="13.2" width="1.6" height="1.6"/>
      <rect x="11.5" y="14.8" width="1.6" height="1.6"/>
      <rect x="11.5" y="18.1" width="1.6" height="1.6"/>
      <rect x="11.5" y="21.4" width="1.6" height="1.6"/>
      <rect x="11.5" y="24.7" width="1.6" height="1.6"/>
      <rect x="11.5" y="26.3" width="1.6" height="1.6"/>
      <rect x="11.5" y="31.3" width="1.6" height="1.6"/>
      <rect x="13.2" y="1.6" width="1.6" height="1.6"/>
      <rect x="13.2" y="4.9" width="1.6" height="1.6"/>
      <rect x="13.2" y="6.6" width="1.6" height="1.6"/>
      <rect x="13.2" y="8.2" width="1.6" height="1.6"/>
      <rect x="13.2" y="9.9" width="1.6" height="1.6"/>
      <rect x="13.2" y="13.2" width="1.6" height="1.6"/>
      <rect x="13.2" y="14.8" width="1.6" height="1.6"/>
      <rect x="13.2" y="16.5" width="1.6" height="1.6"/>
      <rect x="13.2" y="21.4" width="1.6" height="1.6"/>
      <rect x="13.2" y="24.7" width="1.6" height="1.6"/>
      <rect x="13.2" y="29.6" width="1.6" height="1.6"/>
      <rect x="13.2" y="31.3" width="1.6" height="1.6"/>
      <rect x="13.2" y="34.6" width="1.6" height="1.6"/>
      <rect x="13.2" y="36.2" width="1.6" height="1.6"/>
      <rect x="13.2" y="39.5" width="1.6" height="1.6"/>
      <rect x="13.2" y="41.1" width="1.6" height="1.6"/>
      <rect x="13.2" y="44.4" width="1.6" height="1.6"/>
      <rect x="14.8" y="1.6" width="1.6" height="1.6"/>
      <rect x="14.8" y="3.3" width="1.6" height="1.6"/>
      <rect x="14.8" y="4.9" width="1.6" height="1.6"/>
      <rect x="14.8" y="14.8" width="1.6" height="1.6"/>
      <rect x="14.8" y="18.1" width="1.6" height="1.6"/>
      <rect x="14.8" y="23" width="1.6" height="1.6"/>
      <rect x="14.8" y="26.3" width="1.6" height="1.6"/>
      <rect x="14.8" y="32.9" width="1.6" height="1.6"/>
      <rect x="14.8" y="36.2" width="1.6" height="1.6"/>
      <rect x="14.8" y="37.8" width="1.6" height="1.6"/>
      <rect x="14.8" y="39.5" width="1.6" height="1.6"/>
      <rect x="14.8" y="41.1" width="1.6" height="1.6"/>
      <rect x="14.8" y="44.4" width="1.6" height="1.6"/>
      <rect x="16.5" y="1.6" width="1.6" height="1.6"/>
      <rect x="16.5" y="4.9" width="1.6" height="1.6"/>
      <rect x="16.5" y="9.9" width="1.6" height="1.6"/>
      <rect x="16.5" y="11.5" width="1.6" height="1.6"/>
      <rect x="16.5" y="13.2" width="1.6" height="1.6"/>
      <rect x="16.5" y="14.8" width="1.6" height="1.6"/>
      <rect x="16.5" y="16.5" width="1.6" height="1.6"/>
      <rect x="16.5" y="21.4" width="1.6" height="1.6"/>
      <rect x="16.5" y="26.3" width="1.6" height="1.6"/>
      <rect x="16.5" y="28" width="1.6" height="1.6"/>
      <rect x="16.5" y="29.6" width="1.6" height="1.6"/>
      <rect x="16.5" y="32.9" width="1.6" height="1.6"/>
      <rect x="16.5" y="34.6" width="1.6" height="1.6"/>
      <rect x="16.5" y="36.2" width="1.6" height="1.6"/>
      <rect x="16.5" y="41.1" width="1.6" height="1.6"/>
      <rect x="18.1" width="1.6" height="1.6"/>
      <rect x="18.1" y="1.6" width="1.6" height="1.6"/>
      <rect x="18.1" y="4.9" width="1.6" height="1.6"/>
      <rect x="18.1" y="6.6" width="1.6" height="1.6"/>
      <rect x="18.1" y="8.2" width="1.6" height="1.6"/>
      <rect x="18.1" y="21.4" width="1.6" height="1.6"/>
      <rect x="18.1" y="28" width="1.6" height="1.6"/>
      <rect x="18.1" y="31.3" width="1.6" height="1.6"/>
      <rect x="18.1" y="32.9" width="1.6" height="1.6"/>
      <rect x="18.1" y="39.5" width="1.6" height="1.6"/>
      <rect x="18.1" y="41.1" width="1.6" height="1.6"/>
      <rect x="18.1" y="46.1" width="1.6" height="1.6"/>
      <rect x="19.7" y="3.3" width="1.6" height="1.6"/>
      <rect x="19.7" y="4.9" width="1.6" height="1.6"/>
      <rect x="19.7" y="8.2" width="1.6" height="1.6"/>
      <rect x="19.7" y="9.9" width="1.6" height="1.6"/>
      <rect x="19.7" y="13.2" width="1.6" height="1.6"/>
      <rect x="19.7" y="14.8" width="1.6" height="1.6"/>
      <rect x="19.7" y="16.5" width="1.6" height="1.6"/>
      <rect x="19.7" y="18.1" width="1.6" height="1.6"/>
      <rect x="19.7" y="21.4" width="1.6" height="1.6"/>
      <rect x="19.7" y="23" width="1.6" height="1.6"/>
      <rect x="19.7" y="24.7" width="1.6" height="1.6"/>
      <rect x="19.7" y="31.3" width="1.6" height="1.6"/>
      <rect x="19.7" y="32.9" width="1.6" height="1.6"/>
      <rect x="19.7" y="34.6" width="1.6" height="1.6"/>
      <rect x="19.7" y="36.2" width="1.6" height="1.6"/>
      <rect x="19.7" y="41.1" width="1.6" height="1.6"/>
      <rect x="19.7" y="42.8" width="1.6" height="1.6"/>
      <rect x="19.7" y="44.4" width="1.6" height="1.6"/>
      <rect x="21.4" y="1.6" width="1.6" height="1.6"/>
      <rect x="21.4" y="8.2" width="1.6" height="1.6"/>
      <rect x="21.4" y="11.5" width="1.6" height="1.6"/>
      <rect x="21.4" y="13.2" width="1.6" height="1.6"/>
      <rect x="21.4" y="26.3" width="1.6" height="1.6"/>
      <rect x="21.4" y="28" width="1.6" height="1.6"/>
      <rect x="21.4" y="36.2" width="1.6" height="1.6"/>
      <rect x="21.4" y="39.5" width="1.6" height="1.6"/>
      <rect x="21.4" y="42.8" width="1.6" height="1.6"/>
      <rect x="21.4" y="46.1" width="1.6" height="1.6"/>
      <rect x="23" width="1.6" height="1.6"/>
      <rect x="23" y="1.6" width="1.6" height="1.6"/>
      <rect x="23" y="3.3" width="1.6" height="1.6"/>
      <rect x="23" y="9.9" width="1.6" height="1.6"/>
      <rect x="23" y="13.2" width="1.6" height="1.6"/>
      <rect x="23" y="16.5" width="1.6" height="1.6"/>
      <rect x="23" y="18.1" width="1.6" height="1.6"/>
      <rect x="23" y="19.7" width="1.6" height="1.6"/>
      <rect x="23" y="24.7" width="1.6" height="1.6"/>
      <rect x="23" y="26.3" width="1.6" height="1.6"/>
      <rect x="23" y="28" width="1.6" height="1.6"/>
      <rect x="23" y="31.3" width="1.6" height="1.6"/>
      <rect x="23" y="32.9" width="1.6" height="1.6"/>
      <rect x="23" y="34.6" width="1.6" height="1.6"/>
      <rect x="23" y="37.8" width="1.6" height="1.6"/>
      <rect x="23" y="41.1" width="1.6" height="1.6"/>
      <rect x="23" y="44.4" width="1.6" height="1.6"/>
      <rect x="23" y="46.1" width="1.6" height="1.6"/>
      <rect x="24.7" y="3.3" width="1.6" height="1.6"/>
      <rect x="24.7" y="4.9" width="1.6" height="1.6"/>
      <rect x="24.7" y="6.6" width="1.6" height="1.6"/>
      <rect x="24.7" y="11.5" width="1.6" height="1.6"/>
      <rect x="24.7" y="14.8" width="1.6" height="1.6"/>
      <rect x="24.7" y="16.5" width="1.6" height="1.6"/>
      <rect x="24.7" y="19.7" width="1.6" height="1.6"/>
      <rect x="24.7" y="21.4" width="1.6" height="1.6"/>
      <rect x="24.7" y="24.7" width="1.6" height="1.6"/>
      <rect x="24.7" y="26.3" width="1.6" height="1.6"/>
      <rect x="24.7" y="28" width="1.6" height="1.6"/>
      <rect x="24.7" y="29.6" width="1.6" height="1.6"/>
      <rect x="24.7" y="34.6" width="1.6" height="1.6"/>
      <rect x="24.7" y="39.5" width="1.6" height="1.6"/>
      <rect x="24.7" y="41.1" width="1.6" height="1.6"/>
      <rect x="24.7" y="42.8" width="1.6" height="1.6"/>
      <rect x="24.7" y="44.4" width="1.6" height="1.6"/>
      <rect x="24.7" y="46.1" width="1.6" height="1.6"/>
      <rect x="26.3" y="3.3" width="1.6" height="1.6"/>
      <rect x="26.3" y="6.6" width="1.6" height="1.6"/>
      <rect x="26.3" y="8.2" width="1.6" height="1.6"/>
      <rect x="26.3" y="9.9" width="1.6" height="1.6"/>
      <rect x="26.3" y="11.5" width="1.6" height="1.6"/>
      <rect x="26.3" y="14.8" width="1.6" height="1.6"/>
      <rect x="26.3" y="19.7" width="1.6" height="1.6"/>
      <rect x="26.3" y="21.4" width="1.6" height="1.6"/>
      <rect x="26.3" y="26.3" width="1.6" height="1.6"/>
      <rect x="26.3" y="28" width="1.6" height="1.6"/>
      <rect x="26.3" y="31.3" width="1.6" height="1.6"/>
      <rect x="26.3" y="32.9" width="1.6" height="1.6"/>
      <rect x="26.3" y="39.5" width="1.6" height="1.6"/>
      <rect x="26.3" y="41.1" width="1.6" height="1.6"/>
      <rect x="26.3" y="46.1" width="1.6" height="1.6"/>
      <rect x="28" width="1.6" height="1.6"/>
      <rect x="28" y="1.6" width="1.6" height="1.6"/>
      <rect x="28" y="4.9" width="1.6" height="1.6"/>
      <rect x="28" y="11.5" width="1.6" height="1.6"/>
      <rect x="28" y="26.3" width="1.6" height="1.6"/>
      <rect x="28" y="28" width="1.6" height="1.6"/>
      <rect x="28" y="29.6" width="1.6" height="1.6"/>
      <rect x="28" y="31.3" width="1.6" height="1.6"/>
      <rect x="28" y="32.9" width="1.6" height="1.6"/>
      <rect x="28" y="34.6" width="1.6" height="1.6"/>
      <rect x="28" y="39.5" width="1.6" height="1.6"/>
      <rect x="28" y="41.1" width="1.6" height="1.6"/>
      <rect x="29.6" width="1.6" height="1.6"/>
      <rect x="29.6" y="1.6" width="1.6" height="1.6"/>
      <rect x="29.6" y="3.3" width="1.6" height="1.6"/>
      <rect x="29.6" y="6.6" width="1.6" height="1.6"/>
      <rect x="29.6" y="8.2" width="1.6" height="1.6"/>
      <rect x="29.6" y="9.9" width="1.6" height="1.6"/>
      <rect x="29.6" y="13.2" width="1.6" height="1.6"/>
      <rect x="29.6" y="19.7" width="1.6" height="1.6"/>
      <rect x="29.6" y="23" width="1.6" height="1.6"/>
      <rect x="29.6" y="24.7" width="1.6" height="1.6"/>
      <rect x="29.6" y="29.6" width="1.6" height="1.6"/>
      <rect x="29.6" y="31.3" width="1.6" height="1.6"/>
      <rect x="29.6" y="41.1" width="1.6" height="1.6"/>
      <rect x="29.6" y="42.8" width="1.6" height="1.6"/>
      <rect x="29.6" y="46.1" width="1.6" height="1.6"/>
      <rect x="31.3" width="1.6" height="1.6"/>
      <rect x="31.3" y="1.6" width="1.6" height="1.6"/>
      <rect x="31.3" y="4.9" width="1.6" height="1.6"/>
      <rect x="31.3" y="8.2" width="1.6" height="1.6"/>
      <rect x="31.3" y="14.8" width="1.6" height="1.6"/>
      <rect x="31.3" y="16.5" width="1.6" height="1.6"/>
      <rect x="31.3" y="18.1" width="1.6" height="1.6"/>
      <rect x="31.3" y="23" width="1.6" height="1.6"/>
      <rect x="31.3" y="29.6" width="1.6" height="1.6"/>
      <rect x="31.3" y="34.6" width="1.6" height="1.6"/>
      <rect x="31.3" y="36.2" width="1.6" height="1.6"/>
      <rect x="31.3" y="37.8" width="1.6" height="1.6"/>
      <rect x="31.3" y="42.8" width="1.6" height="1.6"/>
      <rect x="31.3" y="46.1" width="1.6" height="1.6"/>
      <rect x="32.9" width="1.6" height="1.6"/>
      <rect x="32.9" y="1.6" width="1.6" height="1.6"/>
      <rect x="32.9" y="4.9" width="1.6" height="1.6"/>
      <rect x="32.9" y="8.2" width="1.6" height="1.6"/>
      <rect x="32.9" y="9.9" width="1.6" height="1.6"/>
      <rect x="32.9" y="13.2" width="1.6" height="1.6"/>
      <rect x="32.9" y="14.8" width="1.6" height="1.6"/>
      <rect x="32.9" y="18.1" width="1.6" height="1.6"/>
      <rect x="32.9" y="19.7" width="1.6" height="1.6"/>
      <rect x="32.9" y="21.4" width="1.6" height="1.6"/>
      <rect x="32.9" y="23" width="1.6" height="1.6"/>
      <rect x="32.9" y="24.7" width="1.6" height="1.6"/>
      <rect x="32.9" y="26.3" width="1.6" height="1.6"/>
      <rect x="32.9" y="28" width="1.6" height="1.6"/>
      <rect x="32.9" y="29.6" width="1.6" height="1.6"/>
      <rect x="32.9" y="31.3" width="1.6" height="1.6"/>
      <rect x="32.9" y="32.9" width="1.6" height="1.6"/>
      <rect x="32.9" y="34.6" width="1.6" height="1.6"/>
      <rect x="32.9" y="36.2" width="1.6" height="1.6"/>
      <rect x="32.9" y="37.8" width="1.6" height="1.6"/>
      <rect x="32.9" y="39.5" width="1.6" height="1.6"/>
      <rect x="32.9" y="42.8" width="1.6" height="1.6"/>
      <rect x="32.9" y="44.4" width="1.6" height="1.6"/>
      <rect x="34.6" y="13.2" width="1.6" height="1.6"/>
      <rect x="34.6" y="14.8" width="1.6" height="1.6"/>
      <rect x="34.6" y="19.7" width="1.6" height="1.6"/>
      <rect x="34.6" y="21.4" width="1.6" height="1.6"/>
      <rect x="34.6" y="23" width="1.6" height="1.6"/>
      <rect x="34.6" y="24.7" width="1.6" height="1.6"/>
      <rect x="34.6" y="29.6" width="1.6" height="1.6"/>
      <rect x="34.6" y="32.9" width="1.6" height="1.6"/>
      <rect x="34.6" y="39.5" width="1.6" height="1.6"/>
      <rect x="34.6" y="41.1" width="1.6" height="1.6"/>
      <rect x="34.6" y="42.8" width="1.6" height="1.6"/>
      <rect x="36.2" y="18.1" width="1.6" height="1.6"/>
      <rect x="36.2" y="21.4" width="1.6" height="1.6"/>
      <rect x="36.2" y="24.7" width="1.6" height="1.6"/>
      <rect x="36.2" y="26.3" width="1.6" height="1.6"/>
      <rect x="36.2" y="28" width="1.6" height="1.6"/>
      <rect x="36.2" y="29.6" width="1.6" height="1.6"/>
      <rect x="36.2" y="31.3" width="1.6" height="1.6"/>
      <rect x="36.2" y="32.9" width="1.6" height="1.6"/>
      <rect x="36.2" y="36.2" width="1.6" height="1.6"/>
      <rect x="36.2" y="39.5" width="1.6" height="1.6"/>
      <rect x="36.2" y="42.8" width="1.6" height="1.6"/>
      <rect x="37.8" y="13.2" width="1.6" height="1.6"/>
      <rect x="37.8" y="14.8" width="1.6" height="1.6"/>
      <rect x="37.8" y="18.1" width="1.6" height="1.6"/>
      <rect x="37.8" y="21.4" width="1.6" height="1.6"/>
      <rect x="37.8" y="23" width="1.6" height="1.6"/>
      <rect x="37.8" y="24.7" width="1.6" height="1.6"/>
      <rect x="37.8" y="26.3" width="1.6" height="1.6"/>
      <rect x="37.8" y="28" width="1.6" height="1.6"/>
      <rect x="37.8" y="31.3" width="1.6" height="1.6"/>
      <rect x="37.8" y="32.9" width="1.6" height="1.6"/>
      <rect x="37.8" y="39.5" width="1.6" height="1.6"/>
      <rect x="37.8" y="41.1" width="1.6" height="1.6"/>
      <rect x="37.8" y="44.4" width="1.6" height="1.6"/>
      <rect x="39.5" y="13.2" width="1.6" height="1.6"/>
      <rect x="39.5" y="16.5" width="1.6" height="1.6"/>
      <rect x="39.5" y="19.7" width="1.6" height="1.6"/>
      <rect x="39.5" y="23" width="1.6" height="1.6"/>
      <rect x="39.5" y="24.7" width="1.6" height="1.6"/>
      <rect x="39.5" y="26.3" width="1.6" height="1.6"/>
      <rect x="39.5" y="28" width="1.6" height="1.6"/>
      <rect x="39.5" y="29.6" width="1.6" height="1.6"/>
      <rect x="39.5" y="31.3" width="1.6" height="1.6"/>
      <rect x="39.5" y="32.9" width="1.6" height="1.6"/>
      <rect x="39.5" y="34.6" width="1.6" height="1.6"/>
      <rect x="39.5" y="36.2" width="1.6" height="1.6"/>
      <rect x="39.5" y="37.8" width="1.6" height="1.6"/>
      <rect x="39.5" y="39.5" width="1.6" height="1.6"/>
      <rect x="41.1" y="13.2" width="1.6" height="1.6"/>
      <rect x="41.1" y="18.1" width="1.6" height="1.6"/>
      <rect x="41.1" y="19.7" width="1.6" height="1.6"/>
      <rect x="41.1" y="21.4" width="1.6" height="1.6"/>
      <rect x="41.1" y="26.3" width="1.6" height="1.6"/>
      <rect x="41.1" y="28" width="1.6" height="1.6"/>
      <rect x="41.1" y="37.8" width="1.6" height="1.6"/>
      <rect x="41.1" y="42.8" width="1.6" height="1.6"/>
      <rect x="41.1" y="44.4" width="1.6" height="1.6"/>
      <rect x="42.8" y="16.5" width="1.6" height="1.6"/>
      <rect x="42.8" y="23" width="1.6" height="1.6"/>
      <rect x="42.8" y="26.3" width="1.6" height="1.6"/>
      <rect x="42.8" y="28" width="1.6" height="1.6"/>
      <rect x="42.8" y="32.9" width="1.6" height="1.6"/>
      <rect x="42.8" y="34.6" width="1.6" height="1.6"/>
      <rect x="42.8" y="37.8" width="1.6" height="1.6"/>
      <rect x="42.8" y="39.5" width="1.6" height="1.6"/>
      <rect x="42.8" y="42.8" width="1.6" height="1.6"/>
      <rect x="42.8" y="44.4" width="1.6" height="1.6"/>
      <rect x="42.8" y="46.1" width="1.6" height="1.6"/>
      <rect x="44.4" y="13.2" width="1.6" height="1.6"/>
      <rect x="44.4" y="24.7" width="1.6" height="1.6"/>
      <rect x="44.4" y="29.6" width="1.6" height="1.6"/>
      <rect x="44.4" y="39.5" width="1.6" height="1.6"/>
      <rect x="44.4" y="41.1" width="1.6" height="1.6"/>
      <rect x="44.4" y="42.8" width="1.6" height="1.6"/>
      <rect x="44.4" y="46.1" width="1.6" height="1.6"/>
      <rect x="46.1" y="16.5" width="1.6" height="1.6"/>
      <rect x="46.1" y="18.1" width="1.6" height="1.6"/>
      <rect x="46.1" y="31.3" width="1.6" height="1.6"/>
      <rect x="46.1" y="32.9" width="1.6" height="1.6"/>
      <rect x="46.1" y="34.6" width="1.6" height="1.6"/>
      <rect x="46.1" y="36.2" width="1.6" height="1.6"/>
      <rect x="46.1" y="37.8" width="1.6" height="1.6"/>
      <rect x="46.1" y="39.5" width="1.6" height="1.6"/>
      <rect x="46.1" y="42.8" width="1.6" height="1.6"/>
      <rect width="1.6" height="1.6"/>
      <rect y="1.6" width="1.6" height="1.6"/>
      <rect y="3.3" width="1.6" height="1.6"/>
      <rect y="4.9" width="1.6" height="1.6"/>
      <rect y="6.6" width="1.6" height="1.6"/>
      <rect y="8.2" width="1.6" height="1.6"/>
      <rect y="9.9" width="1.6" height="1.6"/>
      <rect x="1.6" width="1.6" height="1.6"/>
      <rect x="1.6" y="9.9" width="1.6" height="1.6"/>
      <rect x="3.3" width="1.6" height="1.6"/>
      <rect x="3.3" y="9.9" width="1.6" height="1.6"/>
      <rect x="4.9" width="1.6" height="1.6"/>
      <rect x="4.9" y="9.9" width="1.6" height="1.6"/>
      <rect x="6.6" width="1.6" height="1.6"/>
      <rect x="6.6" y="9.9" width="1.6" height="1.6"/>
      <rect x="8.2" width="1.6" height="1.6"/>
      <rect x="8.2" y="9.9" width="1.6" height="1.6"/>
      <rect x="9.9" width="1.6" height="1.6"/>
      <rect x="9.9" y="1.6" width="1.6" height="1.6"/>
      <rect x="9.9" y="3.3" width="1.6" height="1.6"/>
      <rect x="9.9" y="4.9" width="1.6" height="1.6"/>
      <rect x="9.9" y="6.6" width="1.6" height="1.6"/>
      <rect x="9.9" y="8.2" width="1.6" height="1.6"/>
      <rect x="9.9" y="9.9" width="1.6" height="1.6"/>
      <rect x="3.3" y="3.3" width="1.6" height="1.6"/>
      <rect x="3.3" y="4.9" width="1.6" height="1.6"/>
      <rect x="3.3" y="6.6" width="1.6" height="1.6"/>
      <rect x="4.9" y="3.3" width="1.6" height="1.6"/>
      <rect x="4.9" y="4.9" width="1.6" height="1.6"/>
      <rect x="4.9" y="6.6" width="1.6" height="1.6"/>
      <rect x="6.6" y="3.3" width="1.6" height="1.6"/>
      <rect x="6.6" y="4.9" width="1.6" height="1.6"/>
      <rect x="6.6" y="6.6" width="1.6" height="1.6"/>
      <rect x="36.2" width="1.6" height="1.6"/>
      <rect x="36.2" y="1.6" width="1.6" height="1.6"/>
      <rect x="36.2" y="3.3" width="1.6" height="1.6"/>
      <rect x="36.2" y="4.9" width="1.6" height="1.6"/>
      <rect x="36.2" y="6.6" width="1.6" height="1.6"/>
      <rect x="36.2" y="8.2" width="1.6" height="1.6"/>
      <rect x="36.2" y="9.9" width="1.6" height="1.6"/>
      <rect x="37.8" width="1.6" height="1.6"/>
      <rect x="37.8" y="9.9" width="1.6" height="1.6"/>
      <rect x="39.5" width="1.6" height="1.6"/>
      <rect x="39.5" y="9.9" width="1.6" height="1.6"/>
      <rect x="41.1" width="1.6" height="1.6"/>
      <rect x="41.1" y="9.9" width="1.6" height="1.6"/>
      <rect x="42.8" width="1.6" height="1.6"/>
      <rect x="42.8" y="9.9" width="1.6" height="1.6"/>
      <rect x="44.4" width="1.6" height="1.6"/>
      <rect x="44.4" y="9.9" width="1.6" height="1.6"/>
      <rect x="46.1" width="1.6" height="1.6"/>
      <rect x="46.1" y="1.6" width="1.6" height="1.6"/>
      <rect x="46.1" y="3.3" width="1.6" height="1.6"/>
      <rect x="46.1" y="4.9" width="1.6" height="1.6"/>
      <rect x="46.1" y="6.6" width="1.6" height="1.6"/>
      <rect x="46.1" y="8.2" width="1.6" height="1.6"/>
      <rect x="46.1" y="9.9" width="1.6" height="1.6"/>
      <rect x="39.5" y="3.3" width="1.6" height="1.6"/>
      <rect x="39.5" y="4.9" width="1.6" height="1.6"/>
      <rect x="39.5" y="6.6" width="1.6" height="1.6"/>
      <rect x="41.1" y="3.3" width="1.6" height="1.6"/>
      <rect x="41.1" y="4.9" width="1.6" height="1.6"/>
      <rect x="41.1" y="6.6" width="1.6" height="1.6"/>
      <rect x="42.8" y="3.3" width="1.6" height="1.6"/>
      <rect x="42.8" y="4.9" width="1.6" height="1.6"/>
      <rect x="42.8" y="6.6" width="1.6" height="1.6"/>
      <rect y="36.2" width="1.6" height="1.6"/>
      <rect y="37.8" width="1.6" height="1.6"/>
      <rect y="39.5" width="1.6" height="1.6"/>
      <rect y="41.1" width="1.6" height="1.6"/>
      <rect y="42.8" width="1.6" height="1.6"/>
      <rect y="44.4" width="1.6" height="1.6"/>
      <rect y="46.1" width="1.6" height="1.6"/>
      <rect x="1.6" y="36.2" width="1.6" height="1.6"/>
      <rect x="1.6" y="46.1" width="1.6" height="1.6"/>
      <rect x="3.3" y="36.2" width="1.6" height="1.6"/>
      <rect x="3.3" y="46.1" width="1.6" height="1.6"/>
      <rect x="4.9" y="36.2" width="1.6" height="1.6"/>
      <rect x="4.9" y="46.1" width="1.6" height="1.6"/>
      <rect x="6.6" y="36.2" width="1.6" height="1.6"/>
      <rect x="6.6" y="46.1" width="1.6" height="1.6"/>
      <rect x="8.2" y="36.2" width="1.6" height="1.6"/>
      <rect x="8.2" y="46.1" width="1.6" height="1.6"/>
      <rect x="9.9" y="36.2" width="1.6" height="1.6"/>
      <rect x="9.9" y="37.8" width="1.6" height="1.6"/>
      <rect x="9.9" y="39.5" width="1.6" height="1.6"/>
      <rect x="9.9" y="41.1" width="1.6" height="1.6"/>
      <rect x="9.9" y="42.8" width="1.6" height="1.6"/>
      <rect x="9.9" y="44.4" width="1.6" height="1.6"/>
      <rect x="9.9" y="46.1" width="1.6" height="1.6"/>
      <rect x="3.3" y="39.5" width="1.6" height="1.6"/>
      <rect x="3.3" y="41.1" width="1.6" height="1.6"/>
      <rect x="3.3" y="42.8" width="1.6" height="1.6"/>
      <rect x="4.9" y="39.5" width="1.6" height="1.6"/>
      <rect x="4.9" y="41.1" width="1.6" height="1.6"/>
      <rect x="4.9" y="42.8" width="1.6" height="1.6"/>
      <rect x="6.6" y="39.5" width="1.6" height="1.6"/>
      <rect x="6.6" y="41.1" width="1.6" height="1.6"/>
      <rect x="6.6" y="42.8" width="1.6" height="1.6"/>
    </g>
  </g>
</svg>