<?xml version="1.0" encoding="UTF-8"?>
<svg id="Layer_2" xmlns="http://www.w3.org/2000/svg" viewBox="0 0 149.6 104.6">
  <defs>
    <style>
      .cls-1, .cls-2 {
        fill: #ea2126;
      }

      .cls-3 {
        fill: #606060;
      }

      .cls-2, .cls-4 {
        fill-rule: evenodd;
      }
    </style>
  </defs>
  <g id="Layer_1-2" data-name="Layer_1">
    <g>
      <path class="cls-1" d="M90.4,41.2c-4.6,9.5-11.9,15.5-22.5,16.9-13.4,1.7-23.3-3.8-30.2-15.2-5-9.9-4.5-19.5.8-29.1-2.5,7.6-2.3,15,1.1,22.3,2.8,6,7.1,10.6,12.9,13.7,6.5,3.5,13.3,4.4,20.5,2.7,7.2-1.7,12.9-5.5,17.3-11.3"/>
      <path class="cls-1" d="M50.3,37.4c-3.9-5.1-5.6-13.6-2.2-21.7,3.6-8.4,12.2-13.8,21.2-13.6,9.5.2,17.2,6.3,20,13-9-8.9-19.1-10.6-30.3-3.9-9,6.8-11.6,15.7-8.7,26.3"/>
      <path class="cls-1" d="M59.1,20.4c1.4-.2,2.9-.1,4.3-.1,4.9,0,9.7,0,14.6,0-1.9,1.2-3.3,2.4-4.6,4.3-1.6,0-3.2,0-4.8,0v12.3c-1.7,0-3.4,0-5.1,0,0-4.1,0-8.2,0-12.3h-7.8c1.1-1.4,2.1-3,3.3-4.2"/>
      <path class="cls-1" d="M96.5,25.6c1.7,0,3.3,0,5,0,.2.4.3.8.5,1.2,3.9.3,7.9,0,11.8.2,1.8.2,3.8.8,4.5,2.6.7,1.9.3,4.7-1.5,5.9-1.7,1.3-4.1,1.3-6.1,1.3-4.9,0-9.8,0-14.6,0,1.1-1.4,2.2-2.8,3.3-4.3,4.1,0,8.2,0,12.3,0,.9,0,2.1,0,2-1.3.1-.9-.9-1-1.6-1.1-3.2-.2-6.5,0-9.7,0-1.6,0-3.1-.4-4.4-1.4-.9-.8-1.2-2.1-1.6-3.1"/>
      <path class="cls-3" d="M10.8,97.7c0-.9-.2-1.4-.7-2-.8-1-2-1.6-3.5-1.6-2.8,0-4.6,2-4.6,5.3s1.7,5.2,4.5,5.2,4.1-1.4,4.3-3.7h-2c-.1,1.3-.9,2-2.2,2s-2.5-1.3-2.5-3.5,1-3.5,2.6-3.5,1.9.6,2.1,1.8h2Z"/>
      <path class="cls-3" d="M16.6,94.1c-1.4,0-2.6.5-3.4,1.4-.9,1-1.4,2.4-1.4,3.9s.5,2.9,1.4,3.9c.9.9,2,1.4,3.4,1.4s2.6-.5,3.4-1.4c.9-.9,1.4-2.4,1.4-3.8s-.5-3-1.4-3.9c-.9-.9-2-1.4-3.4-1.4ZM16.6,95.9c1.7,0,2.8,1.4,2.8,3.5s-1.1,3.4-2.8,3.4-2.8-1.4-2.8-3.5,1.1-3.5,2.8-3.5Z"/>
      <polygon class="cls-3" points="24.9 96.5 26.7 104.3 28.8 104.3 30.5 96.5 30.5 104.3 32.6 104.3 32.6 94.3 29.5 94.3 27.7 102.2 25.9 94.3 22.9 94.3 22.9 104.3 24.9 104.3 24.9 96.5"/>
      <path class="cls-3" d="M36.5,100.7h2.6c1.8,0,3-1.3,3-3.3s-1.1-3.1-3.2-3.1h-4.4v10h2.1v-3.6ZM36.5,99v-3h1.9c1.1,0,1.6.5,1.6,1.5s-.5,1.5-1.6,1.5h-1.9Z"/>
      <path class="cls-3" d="M49.2,94.3v6.8c0,1.2-.6,1.8-1.9,1.8s-1.9-.6-1.9-1.8v-6.8h-2.1v6.8c0,1.1.3,1.9,1,2.5.7.7,1.8,1,3,1s2.3-.4,3-1c.7-.6,1-1.4,1-2.5v-6.8h-2.1Z"/>
      <polygon class="cls-3" points="57.5 96 60.4 96 60.4 94.3 52.4 94.3 52.4 96 55.4 96 55.4 104.3 57.5 104.3 57.5 96"/>
      <polygon class="cls-3" points="63.6 100 68.4 100 68.4 98.3 63.6 98.3 63.6 96 68.8 96 68.8 94.3 61.5 94.3 61.5 104.3 69 104.3 69 102.6 63.6 102.6 63.6 100"/>
      <path class="cls-3" d="M72.8,100.3h2.4c.9,0,1.3.4,1.3,1.2v.4c0,.3,0,.5,0,.7,0,.9,0,1.2.3,1.7h2.2c-.3-.2-.4-.8-.4-1.2,0-3-.1-3.1-1.4-3.6,1.1-.4,1.7-1.2,1.7-2.5s-.3-1.5-.8-2c-.5-.5-1.1-.7-1.9-.7h-5.4v10h2.1v-4ZM72.8,98.6v-2.6h2.5c.6,0,.8,0,1.1.3.2.2.4.5.4,1s-.1.9-.4,1.1c-.2.2-.5.3-1.1.3h-2.5Z"/>
      <path class="cls-3" d="M92.5,97.3c0-2.1-1.4-3.2-3.9-3.2s-3.8,1.1-3.8,3.1.8,2.3,2.8,2.7l1.4.3c1.4.3,1.9.6,1.9,1.5s-.8,1.3-2,1.3-2.2-.6-2.3-1.7h-2c.1,2.1,1.6,3.3,4.1,3.3s4.1-1.2,4.1-3.2-.8-2.4-2.6-2.8l-1.6-.3c-1.5-.3-1.9-.6-1.9-1.3s.7-1.2,1.7-1.2,2,.5,2.1,1.6h1.9Z"/>
      <polygon class="cls-3" points="98.7 100.6 101.9 94.3 99.6 94.3 97.7 98.7 95.6 94.3 93.3 94.3 96.7 100.6 96.7 104.3 98.7 104.3 98.7 100.6"/>
      <path class="cls-3" d="M110.3,97.3c0-2.1-1.4-3.2-3.9-3.2s-3.8,1.1-3.8,3.1.8,2.3,2.8,2.7l1.4.3c1.4.3,1.9.6,1.9,1.5s-.8,1.3-2,1.3-2.2-.6-2.3-1.7h-2c.1,2.1,1.6,3.3,4.1,3.3s4.1-1.2,4.1-3.2-.8-2.4-2.6-2.8l-1.6-.3c-1.5-.3-1.9-.6-1.9-1.3s.7-1.2,1.7-1.2,2,.5,2.1,1.6h1.9Z"/>
      <polygon class="cls-3" points="116.6 96 119.5 96 119.5 94.3 111.5 94.3 111.5 96 114.5 96 114.5 104.3 116.6 104.3 116.6 96"/>
      <polygon class="cls-3" points="123 100 127.8 100 127.8 98.3 123 98.3 123 96 128.1 96 128.1 94.3 120.9 94.3 120.9 104.3 128.4 104.3 128.4 102.6 123 102.6 123 100"/>
      <polygon class="cls-3" points="132.2 96.5 134 104.3 136.1 104.3 137.8 96.5 137.8 104.3 139.9 104.3 139.9 94.3 136.8 94.3 135 102.2 133.2 94.3 130.1 94.3 130.1 104.3 132.2 104.3 132.2 96.5"/>
      <path class="cls-3" d="M149.3,97.3c0-2.1-1.4-3.2-3.9-3.2s-3.8,1.1-3.8,3.1.8,2.3,2.8,2.7l1.4.3c1.4.3,1.9.6,1.9,1.5s-.8,1.3-2,1.3-2.2-.6-2.3-1.7h-2c.1,2.1,1.6,3.3,4.1,3.3s4.1-1.2,4.1-3.2-.8-2.4-2.6-2.8l-1.6-.3c-1.5-.3-1.9-.6-1.9-1.3s.7-1.2,1.7-1.2,2,.5,2.1,1.6h1.9Z"/>
      <polygon class="cls-2" points="14.1 72 9.4 72 9.4 88.6 4.7 88.6 4.7 72 0 72 0 67.7 14.1 67.7 14.1 72"/>
      <rect class="cls-1" x="37.7" y="67.7" width="4.6" height="20.9"/>
      <path class="cls-2" d="M34.5,89l-13.1-5.7v5.3h-4.6v-7c0-1.7.4-3.1,1.3-4,1-1.3,2.4-1.8,4.2-1.8h5.7c.6,0,1-.1,1.3-.6.3-.3.4-.7.4-1.3s-.1-1-.4-1.4c-.3-.3-.7-.6-1.3-.6h-11.2v-4.3h12c1.7,0,3.1.6,4.2,2,1,1.1,1.4,2.7,1.4,4.3s-.4,3.2-1.4,4.3c-1,1.4-2.4,2-4.2,2h-2.9l8.7,3.9v4.9Z"/>
      <path class="cls-4" d="M105.1,88.9l-13.1-5.7v5.3h-4.6v-7c0-1.7.4-3.1,1.3-4,1-1.3,2.4-1.8,4.2-1.8h5.7c.6,0,1-.1,1.3-.6.3-.3.4-.7.4-1.3s-.1-1-.4-1.4c-.3-.3-.7-.6-1.3-.6h-11.2v-4.3h12c1.7,0,3.1.6,4.2,2,1,1.1,1.4,2.7,1.4,4.3s-.4,3.2-1.4,4.3c-1,1.4-2.4,2-4.2,2h-2.9l8.7,3.9v4.9Z"/>
      <path class="cls-4" d="M127.8,88.5h-10.2c-2.5,0-4.5-1.1-5.9-3.2-1.3-2-2-4.3-2-7.1s.7-5.3,2-7.4c1.5-2.1,3.5-3.2,5.9-3.2h10.2v4.3h-9.5c-1.1,0-2,.7-2.7,1.8-.6,1.1-.8,2.5-.8,4s.3,3.1.8,4.2c.7,1.4,1.5,2,2.7,2h9.5v4.6Z"/>
      <path class="cls-4" d="M149.6,88.4h-11.9c-1.8,0-3.2-.7-4.2-2-1-1.3-1.5-2.7-1.5-4.5s.1-1.4.4-2.1c.1-.7.4-1.4.8-2-.4-.6-.7-1.1-.8-1.8-.3-.8-.4-1.5-.4-2.2,0-1.7.6-3.2,1.5-4.3,1-1.4,2.4-2,4.2-2h11.9v4.3h-11c-.6,0-1,.3-1.3.6-.3.4-.4.8-.4,1.4s.1,1,.4,1.3c.3.4.7.6,1.3.6h11v4.5h-11.7c-.3.3-.6.4-.7.7-.3.4-.3.7-.3,1.1s.1,1,.4,1.4c.3.3.7.4,1.3.4h11v4.6Z"/>
      <path class="cls-4" d="M60.5,68.3v4.5h-8.1c-1.1,0-2,.4-2.4,1.3-.4.6-.6,1.1-.6,2v.4q0,.1.1.3v12h-4.6v-14.5c0-1.7.4-3.1,1.3-4,1-1.3,2.4-1.8,4.2-1.8h10Z"/>
      <rect x="49.6" y="76.2" width="7.4" height="4.5"/>
      <path d="M84.1,78.3h0c-.2,4.8-2.5,8.1-6.7,10-1.1.5-2.4.7-3.7.7-2.7,0-5.6-1-7.6-2.9-2.5-2.3-3.7-5.7-3.3-9.2.4-3.4,2.4-6.4,5.3-7.9.4-.2.9-.3,1.3-.4.2,0,.4,0,.6,0h.5c0-.1,0,.4,0,.4,0,.2,0,.5,0,.7,0,.7,0,1.3-.2,2,0,.4-.4.6-.7.8,0,0,0,0-.1.1-3,2.2-3.8,5.8-2.1,9,1.6,3.1,5.2,4.4,8.6,3.2,3.3-1.3,5.1-4.7,4.2-8.3-.4-1.6-1.2-2.8-2.6-3.9-1-.7-1.7-2.6-1.1-3.6.3-.5,1.4-.5,1.8-.3,3.7,2,5.7,5.1,5.9,9.3,0,0,0,.2,0,.3"/>
      <path class="cls-1" d="M75,70.2c0,1.5,0,3,0,4.5,0,1.4-.8,2-1.9,1.9-1.2-.1-1.5-1-1.5-2,0-2.9,0-5.8,0-8.8,0-1,.3-1.9,1.5-1.9,1.3,0,1.8.8,1.8,1.8.1,1.5,0,3,0,4.5h0"/>
      <path d="M84.1,20.3c8.5,0,17,0,25.5,0-1.1,1.4-2.2,2.9-3.3,4.3-7.1,0-14.2,0-21.3,0-1.7,0-3.3,0-4.7,1.1-1.5,1.1-2,3.3-1,5,1,1.5,2.6,2,4.3,2,3.9,0,7.7,0,11.6,0-1.1,1.4-2.2,2.8-3.3,4.3-3.1,0-6.2,0-9.2,0-3.2-.2-6.3-1.7-8-4.4-1.7-2.8-1.4-6.7.9-9.1,2.2-2.4,5.3-3,8.4-3"/>
      <path d="M111.8,20.4c.7-.1,1.4-.2,2.1-.2-1.1,1.5-2.2,2.9-3.3,4.4-.7,0-1.4,0-2.1,0,1.1-1.4,2.1-3,3.3-4.2"/>
      <path d="M116,20.5c.7-.2,1.5-.2,2.2-.3-1.1,1.5-2.2,3-3.3,4.4-.7,0-1.4,0-2.1,0,1.1-1.4,2-2.9,3.2-4.1"/>
      <path d="M66.2.3c-1.6.2-3.2.4-4.7.8-2.5.6-4.8,1.7-6.9,3.2-2.7,1.8-5,3.9-6.9,6.5-2.1,3-3.4,6.3-4,9.9-1,6.1.4,11.7,3.7,16.8,1.2,1.9,2.6,3.6,4.3,5.1,2.1,1.8,4.5,3.1,7.1,4,.2,0,.5.2.7.3-8.4-1.2-14.7-5.4-18.3-13.1-4.3-9.1-3.1-17.8,3.3-25.4C50,1.5,57.5-.9,66.2.3"/>
    </g>
  </g>
</svg>