<svg width="564" height="49" viewBox="0 0 564 49" fill="none" xmlns="http://www.w3.org/2000/svg">
<path d="M529.7 48.2H544.8L563.5 29.5H548.4L529.7 48.2Z" fill="#EA2126"/>
<path d="M511.7 48.2H526.8L545.5 29.5H530.4L511.7 48.2Z" fill="#EA2126"/>
<path d="M526.8 29.8L508.8 47.9H333.8V43.6H334.7L348.4 29.8H526.8Z" fill="#231F20"/>
<path d="M333.9 43.6H60.7V48H333.9V43.6Z" fill="#231F20"/>
<path d="M2.50002 24.9H0.900024V26.5H2.50002V24.9Z" fill="black"/>
<path d="M2.50002 29.8H0.900024V31.4H2.50002V29.8Z" fill="black"/>
<path d="M2.50002 31.5H0.900024V33.1H2.50002V31.5Z" fill="black"/>
<path d="M4.1 13.4H2.5V15H4.1V13.4Z" fill="black"/>
<path d="M4.1 21.6H2.5V23.2H4.1V21.6Z" fill="black"/>
<path d="M4.1 23.2H2.5V24.8H4.1V23.2Z" fill="black"/>
<path d="M4.1 24.9H2.5V26.5H4.1V24.9Z" fill="black"/>
<path d="M4.1 33.1H2.5V34.7H4.1V33.1Z" fill="black"/>
<path d="M5.80007 15H4.20007V16.6H5.80007V15Z" fill="black"/>
<path d="M5.80007 16.7H4.20007V18.3H5.80007V16.7Z" fill="black"/>
<path d="M5.80007 18.3H4.20007V19.9H5.80007V18.3Z" fill="black"/>
<path d="M5.80007 21.6H4.20007V23.2H5.80007V21.6Z" fill="black"/>
<path d="M5.80007 24.9H4.20007V26.5H5.80007V24.9Z" fill="black"/>
<path d="M5.80007 26.5H4.20007V28.1H5.80007V26.5Z" fill="black"/>
<path d="M5.80007 33.1H4.20007V34.7H5.80007V33.1Z" fill="black"/>
<path d="M7.40005 13.4H5.80005V15H7.40005V13.4Z" fill="black"/>
<path d="M7.40005 15H5.80005V16.6H7.40005V15Z" fill="black"/>
<path d="M7.40005 18.3H5.80005V19.9H7.40005V18.3Z" fill="black"/>
<path d="M7.40005 19.9H5.80005V21.5H7.40005V19.9Z" fill="black"/>
<path d="M7.40005 23.2H5.80005V24.8H7.40005V23.2Z" fill="black"/>
<path d="M7.40005 28.2H5.80005V29.8H7.40005V28.2Z" fill="black"/>
<path d="M7.40005 31.5H5.80005V33.1H7.40005V31.5Z" fill="black"/>
<path d="M7.40005 33.1H5.80005V34.7H7.40005V33.1Z" fill="black"/>
<path d="M9.1 13.4H7.5V15H9.1V13.4Z" fill="black"/>
<path d="M9.1 16.7H7.5V18.3H9.1V16.7Z" fill="black"/>
<path d="M9.1 18.3H7.5V19.9H9.1V18.3Z" fill="black"/>
<path d="M9.1 24.9H7.5V26.5H9.1V24.9Z" fill="black"/>
<path d="M9.1 26.5H7.5V28.1H9.1V26.5Z" fill="black"/>
<path d="M9.1 28.2H7.5V29.8H9.1V28.2Z" fill="black"/>
<path d="M9.1 31.5H7.5V33.1H9.1V31.5Z" fill="black"/>
<path d="M9.1 33.1H7.5V34.7H9.1V33.1Z" fill="black"/>
<path d="M10.7 15H9.09998V16.6H10.7V15Z" fill="black"/>
<path d="M10.7 18.3H9.09998V19.9H10.7V18.3Z" fill="black"/>
<path d="M10.7 19.9H9.09998V21.5H10.7V19.9Z" fill="black"/>
<path d="M10.7 21.6H9.09998V23.2H10.7V21.6Z" fill="black"/>
<path d="M10.7 28.2H9.09998V29.8H10.7V28.2Z" fill="black"/>
<path d="M10.7 29.8H9.09998V31.4H10.7V29.8Z" fill="black"/>
<path d="M10.7 33.1H9.09998V34.7H10.7V33.1Z" fill="black"/>
<path d="M12.4001 13.4H10.8V15H12.4001V13.4Z" fill="black"/>
<path d="M12.4001 16.7H10.8V18.3H12.4001V16.7Z" fill="black"/>
<path d="M12.4001 19.9H10.8V21.5H12.4001V19.9Z" fill="black"/>
<path d="M12.4001 23.2H10.8V24.8H12.4001V23.2Z" fill="black"/>
<path d="M12.4001 26.5H10.8V28.1H12.4001V26.5Z" fill="black"/>
<path d="M12.4001 29.8H10.8V31.4H12.4001V29.8Z" fill="black"/>
<path d="M12.4001 33.1H10.8V34.7H12.4001V33.1Z" fill="black"/>
<path d="M14 13.4H12.4V15H14V13.4Z" fill="black"/>
<path d="M14 15H12.4V16.6H14V15Z" fill="black"/>
<path d="M14 18.3H12.4V19.9H14V18.3Z" fill="black"/>
<path d="M14 21.6H12.4V23.2H14V21.6Z" fill="black"/>
<path d="M14 24.9H12.4V26.5H14V24.9Z" fill="black"/>
<path d="M14 26.5H12.4V28.1H14V26.5Z" fill="black"/>
<path d="M14 31.5H12.4V33.1H14V31.5Z" fill="black"/>
<path d="M15.7 1.90002H14.1V3.5H15.7V1.90002Z" fill="black"/>
<path d="M15.7 5.09998H14.1V6.70001H15.7V5.09998Z" fill="black"/>
<path d="M15.7 6.79999H14.1V8.40002H15.7V6.79999Z" fill="black"/>
<path d="M15.7 8.40002H14.1V10H15.7V8.40002Z" fill="black"/>
<path d="M15.7 10.1H14.1V11.7H15.7V10.1Z" fill="black"/>
<path d="M15.7 13.4H14.1V15H15.7V13.4Z" fill="black"/>
<path d="M15.7 15H14.1V16.6H15.7V15Z" fill="black"/>
<path d="M15.7 16.7H14.1V18.3H15.7V16.7Z" fill="black"/>
<path d="M15.7 21.6H14.1V23.2H15.7V21.6Z" fill="black"/>
<path d="M15.7 24.9H14.1V26.5H15.7V24.9Z" fill="black"/>
<path d="M15.7 29.8H14.1V31.4H15.7V29.8Z" fill="black"/>
<path d="M15.7 31.5H14.1V33.1H15.7V31.5Z" fill="black"/>
<path d="M15.7 34.8H14.1V36.4H15.7V34.8Z" fill="black"/>
<path d="M15.7 36.4H14.1V38H15.7V36.4Z" fill="black"/>
<path d="M15.7 39.7H14.1V41.3H15.7V39.7Z" fill="black"/>
<path d="M15.7 41.3H14.1V42.9H15.7V41.3Z" fill="black"/>
<path d="M15.7 44.6H14.1V46.2H15.7V44.6Z" fill="black"/>
<path d="M17.3001 1.90002H15.7001V3.5H17.3001V1.90002Z" fill="black"/>
<path d="M17.3001 3.5H15.7001V5.09998H17.3001V3.5Z" fill="black"/>
<path d="M17.3001 5.09998H15.7001V6.70001H17.3001V5.09998Z" fill="black"/>
<path d="M17.3001 15H15.7001V16.6H17.3001V15Z" fill="black"/>
<path d="M17.3001 18.3H15.7001V19.9H17.3001V18.3Z" fill="black"/>
<path d="M17.3001 23.2H15.7001V24.8H17.3001V23.2Z" fill="black"/>
<path d="M17.3001 26.5H15.7001V28.1H17.3001V26.5Z" fill="black"/>
<path d="M17.3001 33.1H15.7001V34.7H17.3001V33.1Z" fill="black"/>
<path d="M17.3001 36.4H15.7001V38H17.3001V36.4Z" fill="black"/>
<path d="M17.3001 38H15.7001V39.6H17.3001V38Z" fill="black"/>
<path d="M17.3001 39.7H15.7001V41.3H17.3001V39.7Z" fill="black"/>
<path d="M17.3001 41.3H15.7001V42.9H17.3001V41.3Z" fill="black"/>
<path d="M17.3001 44.6H15.7001V46.2H17.3001V44.6Z" fill="black"/>
<path d="M19 1.90002H17.4V3.5H19V1.90002Z" fill="black"/>
<path d="M19 5.09998H17.4V6.70001H19V5.09998Z" fill="black"/>
<path d="M19 10.1H17.4V11.7H19V10.1Z" fill="black"/>
<path d="M19 11.7H17.4V13.3H19V11.7Z" fill="black"/>
<path d="M19 13.4H17.4V15H19V13.4Z" fill="black"/>
<path d="M19 15H17.4V16.6H19V15Z" fill="black"/>
<path d="M19 16.7H17.4V18.3H19V16.7Z" fill="black"/>
<path d="M19 21.6H17.4V23.2H19V21.6Z" fill="black"/>
<path d="M19 26.5H17.4V28.1H19V26.5Z" fill="black"/>
<path d="M19 28.2H17.4V29.8H19V28.2Z" fill="black"/>
<path d="M19 29.8H17.4V31.4H19V29.8Z" fill="black"/>
<path d="M19 33.1H17.4V34.7H19V33.1Z" fill="black"/>
<path d="M19 34.8H17.4V36.4H19V34.8Z" fill="black"/>
<path d="M19 36.4H17.4V38H19V36.4Z" fill="black"/>
<path d="M19 41.3H17.4V42.9H19V41.3Z" fill="black"/>
<path d="M20.6 0.200012H19V1.79999H20.6V0.200012Z" fill="black"/>
<path d="M20.6 1.90002H19V3.5H20.6V1.90002Z" fill="black"/>
<path d="M20.6 5.09998H19V6.70001H20.6V5.09998Z" fill="black"/>
<path d="M20.6 6.79999H19V8.40002H20.6V6.79999Z" fill="black"/>
<path d="M20.6 8.40002H19V10H20.6V8.40002Z" fill="black"/>
<path d="M20.6 21.6H19V23.2H20.6V21.6Z" fill="black"/>
<path d="M20.6 28.2H19V29.8H20.6V28.2Z" fill="black"/>
<path d="M20.6 31.5H19V33.1H20.6V31.5Z" fill="black"/>
<path d="M20.6 33.1H19V34.7H20.6V33.1Z" fill="black"/>
<path d="M20.6 39.7H19V41.3H20.6V39.7Z" fill="black"/>
<path d="M20.6 41.3H19V42.9H20.6V41.3Z" fill="black"/>
<path d="M20.6 46.3H19V47.9H20.6V46.3Z" fill="black"/>
<path d="M22.2 3.5H20.6V5.09998H22.2V3.5Z" fill="black"/>
<path d="M22.2 5.09998H20.6V6.70001H22.2V5.09998Z" fill="black"/>
<path d="M22.2 8.40002H20.6V10H22.2V8.40002Z" fill="black"/>
<path d="M22.2 10.1H20.6V11.7H22.2V10.1Z" fill="black"/>
<path d="M22.2 13.4H20.6V15H22.2V13.4Z" fill="black"/>
<path d="M22.2 15H20.6V16.6H22.2V15Z" fill="black"/>
<path d="M22.2 16.7H20.6V18.3H22.2V16.7Z" fill="black"/>
<path d="M22.2 18.3H20.6V19.9H22.2V18.3Z" fill="black"/>
<path d="M22.2 21.6H20.6V23.2H22.2V21.6Z" fill="black"/>
<path d="M22.2 23.2H20.6V24.8H22.2V23.2Z" fill="black"/>
<path d="M22.2 24.9H20.6V26.5H22.2V24.9Z" fill="black"/>
<path d="M22.2 31.5H20.6V33.1H22.2V31.5Z" fill="black"/>
<path d="M22.2 33.1H20.6V34.7H22.2V33.1Z" fill="black"/>
<path d="M22.2 34.8H20.6V36.4H22.2V34.8Z" fill="black"/>
<path d="M22.2 36.4H20.6V38H22.2V36.4Z" fill="black"/>
<path d="M22.2 41.3H20.6V42.9H22.2V41.3Z" fill="black"/>
<path d="M22.2 43H20.6V44.6H22.2V43Z" fill="black"/>
<path d="M22.2 44.6H20.6V46.2H22.2V44.6Z" fill="black"/>
<path d="M23.9001 1.90002H22.3V3.5H23.9001V1.90002Z" fill="black"/>
<path d="M23.9001 8.40002H22.3V10H23.9001V8.40002Z" fill="black"/>
<path d="M23.9001 11.7H22.3V13.3H23.9001V11.7Z" fill="black"/>
<path d="M23.9001 13.4H22.3V15H23.9001V13.4Z" fill="black"/>
<path d="M23.9001 26.5H22.3V28.1H23.9001V26.5Z" fill="black"/>
<path d="M23.9001 28.2H22.3V29.8H23.9001V28.2Z" fill="black"/>
<path d="M23.9001 36.4H22.3V38H23.9001V36.4Z" fill="black"/>
<path d="M23.9001 39.7H22.3V41.3H23.9001V39.7Z" fill="black"/>
<path d="M23.9001 43H22.3V44.6H23.9001V43Z" fill="black"/>
<path d="M23.9001 46.3H22.3V47.9H23.9001V46.3Z" fill="black"/>
<path d="M25.5 0.200012H23.9V1.79999H25.5V0.200012Z" fill="black"/>
<path d="M25.5 1.90002H23.9V3.5H25.5V1.90002Z" fill="black"/>
<path d="M25.5 3.5H23.9V5.09998H25.5V3.5Z" fill="black"/>
<path d="M25.5 10.1H23.9V11.7H25.5V10.1Z" fill="black"/>
<path d="M25.5 13.4H23.9V15H25.5V13.4Z" fill="black"/>
<path d="M25.5 16.7H23.9V18.3H25.5V16.7Z" fill="black"/>
<path d="M25.5 18.3H23.9V19.9H25.5V18.3Z" fill="black"/>
<path d="M25.5 19.9H23.9V21.5H25.5V19.9Z" fill="black"/>
<path d="M25.5 24.9H23.9V26.5H25.5V24.9Z" fill="black"/>
<path d="M25.5 26.5H23.9V28.1H25.5V26.5Z" fill="black"/>
<path d="M25.5 28.2H23.9V29.8H25.5V28.2Z" fill="black"/>
<path d="M25.5 31.5H23.9V33.1H25.5V31.5Z" fill="black"/>
<path d="M25.5 33.1H23.9V34.7H25.5V33.1Z" fill="black"/>
<path d="M25.5 34.8H23.9V36.4H25.5V34.8Z" fill="black"/>
<path d="M25.5 38H23.9V39.6H25.5V38Z" fill="black"/>
<path d="M25.5 41.3H23.9V42.9H25.5V41.3Z" fill="black"/>
<path d="M25.5 44.6H23.9V46.2H25.5V44.6Z" fill="black"/>
<path d="M25.5 46.3H23.9V47.9H25.5V46.3Z" fill="black"/>
<path d="M27.2 3.5H25.6V5.09998H27.2V3.5Z" fill="black"/>
<path d="M27.2 5.09998H25.6V6.70001H27.2V5.09998Z" fill="black"/>
<path d="M27.2 6.79999H25.6V8.40002H27.2V6.79999Z" fill="black"/>
<path d="M27.2 11.7H25.6V13.3H27.2V11.7Z" fill="black"/>
<path d="M27.2 15H25.6V16.6H27.2V15Z" fill="black"/>
<path d="M27.2 16.7H25.6V18.3H27.2V16.7Z" fill="black"/>
<path d="M27.2 19.9H25.6V21.5H27.2V19.9Z" fill="black"/>
<path d="M27.2 21.6H25.6V23.2H27.2V21.6Z" fill="black"/>
<path d="M27.2 24.9H25.6V26.5H27.2V24.9Z" fill="black"/>
<path d="M27.2 26.5H25.6V28.1H27.2V26.5Z" fill="black"/>
<path d="M27.2 28.2H25.6V29.8H27.2V28.2Z" fill="black"/>
<path d="M27.2 29.8H25.6V31.4H27.2V29.8Z" fill="black"/>
<path d="M27.2 34.8H25.6V36.4H27.2V34.8Z" fill="black"/>
<path d="M27.2 39.7H25.6V41.3H27.2V39.7Z" fill="black"/>
<path d="M27.2 41.3H25.6V42.9H27.2V41.3Z" fill="black"/>
<path d="M27.2 43H25.6V44.6H27.2V43Z" fill="black"/>
<path d="M27.2 44.6H25.6V46.2H27.2V44.6Z" fill="black"/>
<path d="M27.2 46.3H25.6V47.9H27.2V46.3Z" fill="black"/>
<path d="M28.8001 3.5H27.2001V5.09998H28.8001V3.5Z" fill="black"/>
<path d="M28.8001 6.79999H27.2001V8.40002H28.8001V6.79999Z" fill="black"/>
<path d="M28.8001 8.40002H27.2001V10H28.8001V8.40002Z" fill="black"/>
<path d="M28.8001 10.1H27.2001V11.7H28.8001V10.1Z" fill="black"/>
<path d="M28.8001 11.7H27.2001V13.3H28.8001V11.7Z" fill="black"/>
<path d="M28.8001 15H27.2001V16.6H28.8001V15Z" fill="black"/>
<path d="M28.8001 19.9H27.2001V21.5H28.8001V19.9Z" fill="black"/>
<path d="M28.8001 21.6H27.2001V23.2H28.8001V21.6Z" fill="black"/>
<path d="M28.8001 26.5H27.2001V28.1H28.8001V26.5Z" fill="black"/>
<path d="M28.8001 28.2H27.2001V29.8H28.8001V28.2Z" fill="black"/>
<path d="M28.8001 31.5H27.2001V33.1H28.8001V31.5Z" fill="black"/>
<path d="M28.8001 33.1H27.2001V34.7H28.8001V33.1Z" fill="black"/>
<path d="M28.8001 39.7H27.2001V41.3H28.8001V39.7Z" fill="black"/>
<path d="M28.8001 41.3H27.2001V42.9H28.8001V41.3Z" fill="black"/>
<path d="M28.8001 46.3H27.2001V47.9H28.8001V46.3Z" fill="black"/>
<path d="M30.5 0.200012H28.9V1.79999H30.5V0.200012Z" fill="black"/>
<path d="M30.5 1.90002H28.9V3.5H30.5V1.90002Z" fill="black"/>
<path d="M30.5 5.09998H28.9V6.70001H30.5V5.09998Z" fill="black"/>
<path d="M30.5 11.7H28.9V13.3H30.5V11.7Z" fill="black"/>
<path d="M30.5 26.5H28.9V28.1H30.5V26.5Z" fill="black"/>
<path d="M30.5 28.2H28.9V29.8H30.5V28.2Z" fill="black"/>
<path d="M30.5 29.8H28.9V31.4H30.5V29.8Z" fill="black"/>
<path d="M30.5 31.5H28.9V33.1H30.5V31.5Z" fill="black"/>
<path d="M30.5 33.1H28.9V34.7H30.5V33.1Z" fill="black"/>
<path d="M30.5 34.8H28.9V36.4H30.5V34.8Z" fill="black"/>
<path d="M30.5 39.7H28.9V41.3H30.5V39.7Z" fill="black"/>
<path d="M30.5 41.3H28.9V42.9H30.5V41.3Z" fill="black"/>
<path d="M32.1 0.200012H30.5V1.79999H32.1V0.200012Z" fill="black"/>
<path d="M32.1 1.90002H30.5V3.5H32.1V1.90002Z" fill="black"/>
<path d="M32.1 3.5H30.5V5.09998H32.1V3.5Z" fill="black"/>
<path d="M32.1 6.79999H30.5V8.40002H32.1V6.79999Z" fill="black"/>
<path d="M32.1 8.40002H30.5V10H32.1V8.40002Z" fill="black"/>
<path d="M32.1 10.1H30.5V11.7H32.1V10.1Z" fill="black"/>
<path d="M32.1 13.4H30.5V15H32.1V13.4Z" fill="black"/>
<path d="M32.1 19.9H30.5V21.5H32.1V19.9Z" fill="black"/>
<path d="M32.1 23.2H30.5V24.8H32.1V23.2Z" fill="black"/>
<path d="M32.1 24.9H30.5V26.5H32.1V24.9Z" fill="black"/>
<path d="M32.1 29.8H30.5V31.4H32.1V29.8Z" fill="black"/>
<path d="M32.1 31.5H30.5V33.1H32.1V31.5Z" fill="black"/>
<path d="M32.1 41.3H30.5V42.9H32.1V41.3Z" fill="black"/>
<path d="M32.1 43H30.5V44.6H32.1V43Z" fill="black"/>
<path d="M32.1 46.3H30.5V47.9H32.1V46.3Z" fill="black"/>
<path d="M33.8001 0.200012H32.2001V1.79999H33.8001V0.200012Z" fill="black"/>
<path d="M33.8001 1.90002H32.2001V3.5H33.8001V1.90002Z" fill="black"/>
<path d="M33.8001 5.09998H32.2001V6.70001H33.8001V5.09998Z" fill="black"/>
<path d="M33.8001 8.40002H32.2001V10H33.8001V8.40002Z" fill="black"/>
<path d="M33.8001 15H32.2001V16.6H33.8001V15Z" fill="black"/>
<path d="M33.8001 16.7H32.2001V18.3H33.8001V16.7Z" fill="black"/>
<path d="M33.8001 18.3H32.2001V19.9H33.8001V18.3Z" fill="black"/>
<path d="M33.8001 23.2H32.2001V24.8H33.8001V23.2Z" fill="black"/>
<path d="M33.8001 29.8H32.2001V31.4H33.8001V29.8Z" fill="black"/>
<path d="M33.8001 34.8H32.2001V36.4H33.8001V34.8Z" fill="black"/>
<path d="M33.8001 36.4H32.2001V38H33.8001V36.4Z" fill="black"/>
<path d="M33.8001 38H32.2001V39.6H33.8001V38Z" fill="black"/>
<path d="M33.8001 43H32.2001V44.6H33.8001V43Z" fill="black"/>
<path d="M33.8001 46.3H32.2001V47.9H33.8001V46.3Z" fill="black"/>
<path d="M35.4001 0.200012H33.8V1.79999H35.4001V0.200012Z" fill="black"/>
<path d="M35.4001 1.90002H33.8V3.5H35.4001V1.90002Z" fill="black"/>
<path d="M35.4001 5.09998H33.8V6.70001H35.4001V5.09998Z" fill="black"/>
<path d="M35.4001 8.40002H33.8V10H35.4001V8.40002Z" fill="black"/>
<path d="M35.4001 10.1H33.8V11.7H35.4001V10.1Z" fill="black"/>
<path d="M35.4001 13.4H33.8V15H35.4001V13.4Z" fill="black"/>
<path d="M35.4001 15H33.8V16.6H35.4001V15Z" fill="black"/>
<path d="M35.4001 18.3H33.8V19.9H35.4001V18.3Z" fill="black"/>
<path d="M35.4001 19.9H33.8V21.5H35.4001V19.9Z" fill="black"/>
<path d="M35.4001 21.6H33.8V23.2H35.4001V21.6Z" fill="black"/>
<path d="M35.4001 23.2H33.8V24.8H35.4001V23.2Z" fill="black"/>
<path d="M35.4001 24.9H33.8V26.5H35.4001V24.9Z" fill="black"/>
<path d="M35.4001 26.5H33.8V28.1H35.4001V26.5Z" fill="black"/>
<path d="M35.4001 28.2H33.8V29.8H35.4001V28.2Z" fill="black"/>
<path d="M35.4001 29.8H33.8V31.4H35.4001V29.8Z" fill="black"/>
<path d="M35.4001 31.5H33.8V33.1H35.4001V31.5Z" fill="black"/>
<path d="M35.4001 33.1H33.8V34.7H35.4001V33.1Z" fill="black"/>
<path d="M35.4001 34.8H33.8V36.4H35.4001V34.8Z" fill="black"/>
<path d="M35.4001 36.4H33.8V38H35.4001V36.4Z" fill="black"/>
<path d="M35.4001 38H33.8V39.6H35.4001V38Z" fill="black"/>
<path d="M35.4001 39.7H33.8V41.3H35.4001V39.7Z" fill="black"/>
<path d="M35.4001 43H33.8V44.6H35.4001V43Z" fill="black"/>
<path d="M35.4001 44.6H33.8V46.2H35.4001V44.6Z" fill="black"/>
<path d="M37.1 13.4H35.5V15H37.1V13.4Z" fill="black"/>
<path d="M37.1 15H35.5V16.6H37.1V15Z" fill="black"/>
<path d="M37.1 19.9H35.5V21.5H37.1V19.9Z" fill="black"/>
<path d="M37.1 21.6H35.5V23.2H37.1V21.6Z" fill="black"/>
<path d="M37.1 23.2H35.5V24.8H37.1V23.2Z" fill="black"/>
<path d="M37.1 24.9H35.5V26.5H37.1V24.9Z" fill="black"/>
<path d="M37.1 29.8H35.5V31.4H37.1V29.8Z" fill="black"/>
<path d="M37.1 33.1H35.5V34.7H37.1V33.1Z" fill="black"/>
<path d="M37.1 39.7H35.5V41.3H37.1V39.7Z" fill="black"/>
<path d="M37.1 41.3H35.5V42.9H37.1V41.3Z" fill="black"/>
<path d="M37.1 43H35.5V44.6H37.1V43Z" fill="black"/>
<path d="M38.7 18.3H37.1V19.9H38.7V18.3Z" fill="black"/>
<path d="M38.7 21.6H37.1V23.2H38.7V21.6Z" fill="black"/>
<path d="M38.7 24.9H37.1V26.5H38.7V24.9Z" fill="black"/>
<path d="M38.7 26.5H37.1V28.1H38.7V26.5Z" fill="black"/>
<path d="M38.7 28.2H37.1V29.8H38.7V28.2Z" fill="black"/>
<path d="M38.7 29.8H37.1V31.4H38.7V29.8Z" fill="black"/>
<path d="M38.7 31.5H37.1V33.1H38.7V31.5Z" fill="black"/>
<path d="M38.7 33.1H37.1V34.7H38.7V33.1Z" fill="black"/>
<path d="M38.7 36.4H37.1V38H38.7V36.4Z" fill="black"/>
<path d="M38.7 39.7H37.1V41.3H38.7V39.7Z" fill="black"/>
<path d="M38.7 43H37.1V44.6H38.7V43Z" fill="black"/>
<path d="M40.3001 13.4H38.7001V15H40.3001V13.4Z" fill="black"/>
<path d="M40.3001 15H38.7001V16.6H40.3001V15Z" fill="black"/>
<path d="M40.3001 18.3H38.7001V19.9H40.3001V18.3Z" fill="black"/>
<path d="M40.3001 21.6H38.7001V23.2H40.3001V21.6Z" fill="black"/>
<path d="M40.3001 23.2H38.7001V24.8H40.3001V23.2Z" fill="black"/>
<path d="M40.3001 24.9H38.7001V26.5H40.3001V24.9Z" fill="black"/>
<path d="M40.3001 26.5H38.7001V28.1H40.3001V26.5Z" fill="black"/>
<path d="M40.3001 28.2H38.7001V29.8H40.3001V28.2Z" fill="black"/>
<path d="M40.3001 31.5H38.7001V33.1H40.3001V31.5Z" fill="black"/>
<path d="M40.3001 33.1H38.7001V34.7H40.3001V33.1Z" fill="black"/>
<path d="M40.3001 39.7H38.7001V41.3H40.3001V39.7Z" fill="black"/>
<path d="M40.3001 41.3H38.7001V42.9H40.3001V41.3Z" fill="black"/>
<path d="M40.3001 44.6H38.7001V46.2H40.3001V44.6Z" fill="black"/>
<path d="M42 13.4H40.4V15H42V13.4Z" fill="black"/>
<path d="M42 16.7H40.4V18.3H42V16.7Z" fill="black"/>
<path d="M42 19.9H40.4V21.5H42V19.9Z" fill="black"/>
<path d="M42 23.2H40.4V24.8H42V23.2Z" fill="black"/>
<path d="M42 24.9H40.4V26.5H42V24.9Z" fill="black"/>
<path d="M42 26.5H40.4V28.1H42V26.5Z" fill="black"/>
<path d="M42 28.2H40.4V29.8H42V28.2Z" fill="black"/>
<path d="M42 29.8H40.4V31.4H42V29.8Z" fill="black"/>
<path d="M42 31.5H40.4V33.1H42V31.5Z" fill="black"/>
<path d="M42 33.1H40.4V34.7H42V33.1Z" fill="black"/>
<path d="M42 34.8H40.4V36.4H42V34.8Z" fill="black"/>
<path d="M42 36.4H40.4V38H42V36.4Z" fill="black"/>
<path d="M42 38H40.4V39.6H42V38Z" fill="black"/>
<path d="M42 39.7H40.4V41.3H42V39.7Z" fill="black"/>
<path d="M43.6 13.4H42V15H43.6V13.4Z" fill="black"/>
<path d="M43.6 18.3H42V19.9H43.6V18.3Z" fill="black"/>
<path d="M43.6 19.9H42V21.5H43.6V19.9Z" fill="black"/>
<path d="M43.6 21.6H42V23.2H43.6V21.6Z" fill="black"/>
<path d="M43.6 26.5H42V28.1H43.6V26.5Z" fill="black"/>
<path d="M43.6 28.2H42V29.8H43.6V28.2Z" fill="black"/>
<path d="M43.6 38H42V39.6H43.6V38Z" fill="black"/>
<path d="M43.6 43H42V44.6H43.6V43Z" fill="black"/>
<path d="M43.6 44.6H42V46.2H43.6V44.6Z" fill="black"/>
<path d="M45.3001 16.7H43.7001V18.3H45.3001V16.7Z" fill="black"/>
<path d="M45.3001 23.2H43.7001V24.8H45.3001V23.2Z" fill="black"/>
<path d="M45.3001 26.5H43.7001V28.1H45.3001V26.5Z" fill="black"/>
<path d="M45.3001 28.2H43.7001V29.8H45.3001V28.2Z" fill="black"/>
<path d="M45.3001 33.1H43.7001V34.7H45.3001V33.1Z" fill="black"/>
<path d="M45.3001 34.8H43.7001V36.4H45.3001V34.8Z" fill="black"/>
<path d="M45.3001 38H43.7001V39.6H45.3001V38Z" fill="black"/>
<path d="M45.3001 39.7H43.7001V41.3H45.3001V39.7Z" fill="black"/>
<path d="M45.3001 43H43.7001V44.6H45.3001V43Z" fill="black"/>
<path d="M45.3001 44.6H43.7001V46.2H45.3001V44.6Z" fill="black"/>
<path d="M45.3001 46.3H43.7001V47.9H45.3001V46.3Z" fill="black"/>
<path d="M46.9 13.4H45.3V15H46.9V13.4Z" fill="black"/>
<path d="M46.9 24.9H45.3V26.5H46.9V24.9Z" fill="black"/>
<path d="M46.9 29.8H45.3V31.4H46.9V29.8Z" fill="black"/>
<path d="M46.9 39.7H45.3V41.3H46.9V39.7Z" fill="black"/>
<path d="M46.9 41.3H45.3V42.9H46.9V41.3Z" fill="black"/>
<path d="M46.9 43H45.3V44.6H46.9V43Z" fill="black"/>
<path d="M46.9 46.3H45.3V47.9H46.9V46.3Z" fill="black"/>
<path d="M48.6 16.7H47V18.3H48.6V16.7Z" fill="black"/>
<path d="M48.6 18.3H47V19.9H48.6V18.3Z" fill="black"/>
<path d="M48.6 31.5H47V33.1H48.6V31.5Z" fill="black"/>
<path d="M48.6 33.1H47V34.7H48.6V33.1Z" fill="black"/>
<path d="M48.6 34.8H47V36.4H48.6V34.8Z" fill="black"/>
<path d="M48.6 36.4H47V38H48.6V36.4Z" fill="black"/>
<path d="M48.6 38H47V39.6H48.6V38Z" fill="black"/>
<path d="M48.6 39.7H47V41.3H48.6V39.7Z" fill="black"/>
<path d="M48.6 43H47V44.6H48.6V43Z" fill="black"/>
<path d="M2.50002 0.200012H0.900024V1.79999H2.50002V0.200012Z" fill="black"/>
<path d="M2.50002 1.90002H0.900024V3.5H2.50002V1.90002Z" fill="black"/>
<path d="M2.50002 3.5H0.900024V5.09998H2.50002V3.5Z" fill="black"/>
<path d="M2.50002 5.09998H0.900024V6.70001H2.50002V5.09998Z" fill="black"/>
<path d="M2.50002 6.79999H0.900024V8.40002H2.50002V6.79999Z" fill="black"/>
<path d="M2.50002 8.40002H0.900024V10H2.50002V8.40002Z" fill="black"/>
<path d="M2.50002 10.1H0.900024V11.7H2.50002V10.1Z" fill="black"/>
<path d="M4.1 0.200012H2.5V1.79999H4.1V0.200012Z" fill="black"/>
<path d="M4.1 10.1H2.5V11.7H4.1V10.1Z" fill="black"/>
<path d="M5.80007 0.200012H4.20007V1.79999H5.80007V0.200012Z" fill="black"/>
<path d="M5.80007 10.1H4.20007V11.7H5.80007V10.1Z" fill="black"/>
<path d="M7.40005 0.200012H5.80005V1.79999H7.40005V0.200012Z" fill="black"/>
<path d="M7.40005 10.1H5.80005V11.7H7.40005V10.1Z" fill="black"/>
<path d="M9.1 0.200012H7.5V1.79999H9.1V0.200012Z" fill="black"/>
<path d="M9.1 10.1H7.5V11.7H9.1V10.1Z" fill="black"/>
<path d="M10.7 0.200012H9.09998V1.79999H10.7V0.200012Z" fill="black"/>
<path d="M10.7 10.1H9.09998V11.7H10.7V10.1Z" fill="black"/>
<path d="M12.4001 0.200012H10.8V1.79999H12.4001V0.200012Z" fill="black"/>
<path d="M12.4001 1.90002H10.8V3.5H12.4001V1.90002Z" fill="black"/>
<path d="M12.4001 3.5H10.8V5.09998H12.4001V3.5Z" fill="black"/>
<path d="M12.4001 5.09998H10.8V6.70001H12.4001V5.09998Z" fill="black"/>
<path d="M12.4001 6.79999H10.8V8.40002H12.4001V6.79999Z" fill="black"/>
<path d="M12.4001 8.40002H10.8V10H12.4001V8.40002Z" fill="black"/>
<path d="M12.4001 10.1H10.8V11.7H12.4001V10.1Z" fill="black"/>
<path d="M5.80007 3.5H4.20007V5.09998H5.80007V3.5Z" fill="black"/>
<path d="M5.80007 5.09998H4.20007V6.70001H5.80007V5.09998Z" fill="black"/>
<path d="M5.80007 6.79999H4.20007V8.40002H5.80007V6.79999Z" fill="black"/>
<path d="M7.40005 3.5H5.80005V5.09998H7.40005V3.5Z" fill="black"/>
<path d="M7.40005 5.09998H5.80005V6.70001H7.40005V5.09998Z" fill="black"/>
<path d="M7.40005 6.79999H5.80005V8.40002H7.40005V6.79999Z" fill="black"/>
<path d="M9.1 3.5H7.5V5.09998H9.1V3.5Z" fill="black"/>
<path d="M9.1 5.09998H7.5V6.70001H9.1V5.09998Z" fill="black"/>
<path d="M9.1 6.79999H7.5V8.40002H9.1V6.79999Z" fill="black"/>
<path d="M38.7 0.200012H37.1V1.79999H38.7V0.200012Z" fill="black"/>
<path d="M38.7 1.90002H37.1V3.5H38.7V1.90002Z" fill="black"/>
<path d="M38.7 3.5H37.1V5.09998H38.7V3.5Z" fill="black"/>
<path d="M38.7 5.09998H37.1V6.70001H38.7V5.09998Z" fill="black"/>
<path d="M38.7 6.79999H37.1V8.40002H38.7V6.79999Z" fill="black"/>
<path d="M38.7 8.40002H37.1V10H38.7V8.40002Z" fill="black"/>
<path d="M38.7 10.1H37.1V11.7H38.7V10.1Z" fill="black"/>
<path d="M40.3001 0.200012H38.7001V1.79999H40.3001V0.200012Z" fill="black"/>
<path d="M40.3001 10.1H38.7001V11.7H40.3001V10.1Z" fill="black"/>
<path d="M42 0.200012H40.4V1.79999H42V0.200012Z" fill="black"/>
<path d="M42 10.1H40.4V11.7H42V10.1Z" fill="black"/>
<path d="M43.6 0.200012H42V1.79999H43.6V0.200012Z" fill="black"/>
<path d="M43.6 10.1H42V11.7H43.6V10.1Z" fill="black"/>
<path d="M45.3001 0.200012H43.7001V1.79999H45.3001V0.200012Z" fill="black"/>
<path d="M45.3001 10.1H43.7001V11.7H45.3001V10.1Z" fill="black"/>
<path d="M46.9 0.200012H45.3V1.79999H46.9V0.200012Z" fill="black"/>
<path d="M46.9 10.1H45.3V11.7H46.9V10.1Z" fill="black"/>
<path d="M48.6 0.200012H47V1.79999H48.6V0.200012Z" fill="black"/>
<path d="M48.6 1.90002H47V3.5H48.6V1.90002Z" fill="black"/>
<path d="M48.6 3.5H47V5.09998H48.6V3.5Z" fill="black"/>
<path d="M48.6 5.09998H47V6.70001H48.6V5.09998Z" fill="black"/>
<path d="M48.6 6.79999H47V8.40002H48.6V6.79999Z" fill="black"/>
<path d="M48.6 8.40002H47V10H48.6V8.40002Z" fill="black"/>
<path d="M48.6 10.1H47V11.7H48.6V10.1Z" fill="black"/>
<path d="M42 3.5H40.4V5.09998H42V3.5Z" fill="black"/>
<path d="M42 5.09998H40.4V6.70001H42V5.09998Z" fill="black"/>
<path d="M42 6.79999H40.4V8.40002H42V6.79999Z" fill="black"/>
<path d="M43.6 3.5H42V5.09998H43.6V3.5Z" fill="black"/>
<path d="M43.6 5.09998H42V6.70001H43.6V5.09998Z" fill="black"/>
<path d="M43.6 6.79999H42V8.40002H43.6V6.79999Z" fill="black"/>
<path d="M45.3001 3.5H43.7001V5.09998H45.3001V3.5Z" fill="black"/>
<path d="M45.3001 5.09998H43.7001V6.70001H45.3001V5.09998Z" fill="black"/>
<path d="M45.3001 6.79999H43.7001V8.40002H45.3001V6.79999Z" fill="black"/>
<path d="M2.50002 36.4H0.900024V38H2.50002V36.4Z" fill="black"/>
<path d="M2.50002 38H0.900024V39.6H2.50002V38Z" fill="black"/>
<path d="M2.50002 39.7H0.900024V41.3H2.50002V39.7Z" fill="black"/>
<path d="M2.50002 41.3H0.900024V42.9H2.50002V41.3Z" fill="black"/>
<path d="M2.50002 43H0.900024V44.6H2.50002V43Z" fill="black"/>
<path d="M2.50002 44.6H0.900024V46.2H2.50002V44.6Z" fill="black"/>
<path d="M2.50002 46.3H0.900024V47.9H2.50002V46.3Z" fill="black"/>
<path d="M4.1 36.4H2.5V38H4.1V36.4Z" fill="black"/>
<path d="M4.1 46.3H2.5V47.9H4.1V46.3Z" fill="black"/>
<path d="M5.80007 36.4H4.20007V38H5.80007V36.4Z" fill="black"/>
<path d="M5.80007 46.3H4.20007V47.9H5.80007V46.3Z" fill="black"/>
<path d="M7.40005 36.4H5.80005V38H7.40005V36.4Z" fill="black"/>
<path d="M7.40005 46.3H5.80005V47.9H7.40005V46.3Z" fill="black"/>
<path d="M9.1 36.4H7.5V38H9.1V36.4Z" fill="black"/>
<path d="M9.1 46.3H7.5V47.9H9.1V46.3Z" fill="black"/>
<path d="M10.7 36.4H9.09998V38H10.7V36.4Z" fill="black"/>
<path d="M10.7 46.3H9.09998V47.9H10.7V46.3Z" fill="black"/>
<path d="M12.4001 36.4H10.8V38H12.4001V36.4Z" fill="black"/>
<path d="M12.4001 38H10.8V39.6H12.4001V38Z" fill="black"/>
<path d="M12.4001 39.7H10.8V41.3H12.4001V39.7Z" fill="black"/>
<path d="M12.4001 41.3H10.8V42.9H12.4001V41.3Z" fill="black"/>
<path d="M12.4001 43H10.8V44.6H12.4001V43Z" fill="black"/>
<path d="M12.4001 44.6H10.8V46.2H12.4001V44.6Z" fill="black"/>
<path d="M12.4001 46.3H10.8V47.9H12.4001V46.3Z" fill="black"/>
<path d="M5.80007 39.7H4.20007V41.3H5.80007V39.7Z" fill="black"/>
<path d="M5.80007 41.3H4.20007V42.9H5.80007V41.3Z" fill="black"/>
<path d="M5.80007 43H4.20007V44.6H5.80007V43Z" fill="black"/>
<path d="M7.40005 39.7H5.80005V41.3H7.40005V39.7Z" fill="black"/>
<path d="M7.40005 41.3H5.80005V42.9H7.40005V41.3Z" fill="black"/>
<path d="M7.40005 43H5.80005V44.6H7.40005V43Z" fill="black"/>
<path d="M9.1 39.7H7.5V41.3H9.1V39.7Z" fill="black"/>
<path d="M9.1 41.3H7.5V42.9H9.1V41.3Z" fill="black"/>
<path d="M9.1 43H7.5V44.6H9.1V43Z" fill="black"/>
<path d="M375.026 41.6625L376.384 37.3168H376.979L376.862 38.181L375.48 42.6H374.899L375.026 41.6625ZM374.113 37.3168L375.271 41.7113L375.354 42.6H374.743L373.21 37.3168H374.113ZM378.278 41.6771L379.382 37.3168H380.28L378.747 42.6H378.142L378.278 41.6771ZM377.111 37.3168L378.439 41.5892L378.591 42.6H378.015L376.594 38.1713L376.477 37.3168H377.111ZM382.546 41.6625L383.903 37.3168H384.499L384.382 38.181L383 42.6H382.419L382.546 41.6625ZM381.633 37.3168L382.79 41.7113L382.873 42.6H382.263L380.729 37.3168H381.633ZM385.798 41.6771L386.901 37.3168H387.8L386.267 42.6H385.661L385.798 41.6771ZM384.631 37.3168L385.959 41.5892L386.11 42.6H385.534L384.113 38.1713L383.996 37.3168H384.631ZM390.065 41.6625L391.423 37.3168H392.019L391.901 38.181L390.52 42.6H389.938L390.065 41.6625ZM389.152 37.3168L390.31 41.7113L390.393 42.6H389.782L388.249 37.3168H389.152ZM393.317 41.6771L394.421 37.3168H395.319L393.786 42.6H393.181L393.317 41.6771ZM392.15 37.3168L393.479 41.5892L393.63 42.6H393.054L391.633 38.1713L391.516 37.3168H392.15ZM395.656 42.1215C395.656 41.9685 395.703 41.8399 395.798 41.7357C395.896 41.6283 396.035 41.5746 396.218 41.5746C396.4 41.5746 396.538 41.6283 396.633 41.7357C396.73 41.8399 396.779 41.9685 396.779 42.1215C396.779 42.2712 396.73 42.3982 396.633 42.5023C396.538 42.6065 396.4 42.6586 396.218 42.6586C396.035 42.6586 395.896 42.6065 395.798 42.5023C395.703 42.3982 395.656 42.2712 395.656 42.1215ZM400.49 37.3168V38.0101H397.634V37.3168H400.49ZM398.601 36.0326H399.504V41.2914C399.504 41.4704 399.532 41.6055 399.587 41.6967C399.642 41.7878 399.714 41.848 399.802 41.8773C399.89 41.9066 399.984 41.9213 400.085 41.9213C400.16 41.9213 400.238 41.9148 400.319 41.9017C400.404 41.8855 400.467 41.8724 400.51 41.8627L400.515 42.6C400.443 42.6228 400.349 42.6439 400.231 42.6635C400.118 42.6862 399.979 42.6976 399.816 42.6976C399.595 42.6976 399.392 42.6537 399.206 42.5658C399.021 42.4779 398.872 42.3314 398.762 42.1263C398.654 41.918 398.601 41.6381 398.601 41.2865V36.0326ZM402.453 38.1469V42.6H401.55V37.3168H402.429L402.453 38.1469ZM404.104 37.2875L404.099 38.1273C404.024 38.111 403.952 38.1013 403.884 38.098C403.819 38.0915 403.744 38.0883 403.659 38.0883C403.451 38.0883 403.267 38.1208 403.107 38.1859C402.948 38.251 402.813 38.3422 402.702 38.4594C402.591 38.5765 402.504 38.7165 402.438 38.8793C402.377 39.0388 402.336 39.2146 402.316 39.4066L402.062 39.5531C402.062 39.2341 402.093 38.9346 402.155 38.6547C402.22 38.3747 402.32 38.1273 402.453 37.9125C402.587 37.6944 402.756 37.5251 402.961 37.4047C403.169 37.281 403.417 37.2191 403.703 37.2191C403.768 37.2191 403.843 37.2273 403.928 37.2435C404.012 37.2566 404.071 37.2712 404.104 37.2875ZM405.92 37.3168V42.6H405.012V37.3168H405.92ZM404.943 35.9154C404.943 35.7689 404.987 35.6452 405.075 35.5443C405.166 35.4434 405.3 35.3929 405.476 35.3929C405.648 35.3929 405.78 35.4434 405.871 35.5443C405.965 35.6452 406.013 35.7689 406.013 35.9154C406.013 36.0554 405.965 36.1758 405.871 36.2767C405.78 36.3744 405.648 36.4232 405.476 36.4232C405.3 36.4232 405.166 36.3744 405.075 36.2767C404.987 36.1758 404.943 36.0554 404.943 35.9154ZM408.718 42.6H407.814V36.7601C407.814 36.3793 407.883 36.0586 408.02 35.7982C408.16 35.5345 408.36 35.336 408.62 35.2025C408.881 35.0658 409.19 34.9974 409.548 34.9974C409.652 34.9974 409.756 35.0039 409.86 35.017C409.968 35.03 410.072 35.0495 410.173 35.0756L410.124 35.8129C410.056 35.7966 409.978 35.7852 409.89 35.7787C409.805 35.7722 409.72 35.7689 409.636 35.7689C409.444 35.7689 409.278 35.808 409.138 35.8861C409.001 35.961 408.897 36.0717 408.825 36.2181C408.754 36.3646 408.718 36.5453 408.718 36.7601V42.6ZM409.841 37.3168V38.0101H406.979V37.3168H409.841ZM410.607 40.017V39.9047C410.607 39.5238 410.663 39.1706 410.773 38.8451C410.884 38.5163 411.044 38.2315 411.252 37.9906C411.46 37.7465 411.713 37.5577 412.009 37.4242C412.305 37.2875 412.637 37.2191 413.005 37.2191C413.376 37.2191 413.71 37.2875 414.006 37.4242C414.305 37.5577 414.559 37.7465 414.768 37.9906C414.979 38.2315 415.14 38.5163 415.251 38.8451C415.362 39.1706 415.417 39.5238 415.417 39.9047V40.017C415.417 40.3978 415.362 40.751 415.251 41.0765C415.14 41.4021 414.979 41.6869 414.768 41.931C414.559 42.1719 414.307 42.3607 414.011 42.4974C413.718 42.6309 413.386 42.6976 413.015 42.6976C412.644 42.6976 412.31 42.6309 412.014 42.4974C411.717 42.3607 411.464 42.1719 411.252 41.931C411.044 41.6869 410.884 41.4021 410.773 41.0765C410.663 40.751 410.607 40.3978 410.607 40.017ZM411.511 39.9047V40.017C411.511 40.2806 411.542 40.5297 411.604 40.764C411.665 40.9952 411.758 41.2002 411.882 41.3793C412.009 41.5583 412.167 41.6999 412.355 41.8041C412.544 41.905 412.764 41.9554 413.015 41.9554C413.262 41.9554 413.479 41.905 413.664 41.8041C413.853 41.6999 414.009 41.5583 414.133 41.3793C414.257 41.2002 414.349 40.9952 414.411 40.764C414.476 40.5297 414.509 40.2806 414.509 40.017V39.9047C414.509 39.6442 414.476 39.3985 414.411 39.1674C414.349 38.933 414.255 38.7263 414.128 38.5472C414.004 38.3649 413.848 38.2217 413.659 38.1176C413.474 38.0134 413.256 37.9613 413.005 37.9613C412.757 37.9613 412.539 38.0134 412.351 38.1176C412.165 38.2217 412.009 38.3649 411.882 38.5472C411.758 38.7263 411.665 38.933 411.604 39.1674C411.542 39.3985 411.511 39.6442 411.511 39.9047ZM417.453 38.1469V42.6H416.55V37.3168H417.429L417.453 38.1469ZM419.104 37.2875L419.099 38.1273C419.024 38.111 418.952 38.1013 418.884 38.098C418.819 38.0915 418.744 38.0883 418.659 38.0883C418.451 38.0883 418.267 38.1208 418.107 38.1859C417.948 38.251 417.813 38.3422 417.702 38.4594C417.591 38.5765 417.504 38.7165 417.438 38.8793C417.377 39.0388 417.336 39.2146 417.316 39.4066L417.062 39.5531C417.062 39.2341 417.093 38.9346 417.155 38.6547C417.22 38.3747 417.32 38.1273 417.453 37.9125C417.587 37.6944 417.756 37.5251 417.961 37.4047C418.169 37.281 418.417 37.2191 418.703 37.2191C418.768 37.2191 418.843 37.2273 418.928 37.2435C419.012 37.2566 419.071 37.2712 419.104 37.2875ZM421.955 41.9554C422.17 41.9554 422.368 41.9115 422.551 41.8236C422.733 41.7357 422.883 41.6153 423 41.4623C423.117 41.306 423.184 41.1286 423.2 40.9301H424.06C424.043 41.2426 423.938 41.5339 423.742 41.8041C423.55 42.071 423.298 42.2875 422.985 42.4535C422.673 42.6163 422.329 42.6976 421.955 42.6976C421.558 42.6976 421.211 42.6276 420.915 42.4877C420.622 42.3477 420.378 42.1556 420.183 41.9115C419.991 41.6674 419.846 41.3874 419.748 41.0717C419.654 40.7526 419.606 40.4157 419.606 40.0609V39.8558C419.606 39.501 419.654 39.1657 419.748 38.85C419.846 38.531 419.991 38.2494 420.183 38.0052C420.378 37.7611 420.622 37.5691 420.915 37.4291C421.211 37.2891 421.558 37.2191 421.955 37.2191C422.368 37.2191 422.73 37.3038 423.039 37.473C423.348 37.639 423.591 37.8669 423.767 38.1566C423.946 38.4431 424.043 38.7686 424.06 39.1332H423.2C423.184 38.9151 423.122 38.7181 423.015 38.5424C422.91 38.3666 422.767 38.2266 422.585 38.1224C422.406 38.015 422.196 37.9613 421.955 37.9613C421.678 37.9613 421.446 38.0166 421.257 38.1273C421.071 38.2347 420.923 38.3812 420.812 38.5668C420.705 38.7491 420.627 38.9525 420.578 39.1771C420.533 39.3985 420.51 39.6247 420.51 39.8558V40.0609C420.51 40.292 420.533 40.5199 420.578 40.7445C420.624 40.9691 420.7 41.1726 420.808 41.3549C420.918 41.5372 421.066 41.6836 421.252 41.7943C421.441 41.9017 421.675 41.9554 421.955 41.9554ZM427.268 42.6976C426.9 42.6976 426.566 42.6358 426.267 42.5121C425.97 42.3851 425.715 42.2077 425.5 41.9799C425.288 41.752 425.126 41.4818 425.012 41.1693C424.898 40.8568 424.841 40.515 424.841 40.1439V39.9388C424.841 39.5092 424.904 39.1267 425.031 38.7914C425.158 38.4528 425.331 38.1664 425.549 37.932C425.767 37.6976 426.014 37.5202 426.291 37.3998C426.568 37.2793 426.854 37.2191 427.15 37.2191C427.528 37.2191 427.854 37.2842 428.127 37.4144C428.404 37.5446 428.63 37.7269 428.806 37.9613C428.981 38.1924 429.112 38.4659 429.196 38.7816C429.281 39.0941 429.323 39.4359 429.323 39.807V40.2123H425.378V39.475H428.42V39.4066C428.407 39.1722 428.358 38.9444 428.273 38.723C428.192 38.5017 428.062 38.3194 427.883 38.1761C427.704 38.0329 427.46 37.9613 427.15 37.9613C426.945 37.9613 426.757 38.0052 426.584 38.0931C426.411 38.1778 426.263 38.3047 426.14 38.474C426.016 38.6433 425.92 38.85 425.852 39.0941C425.783 39.3383 425.749 39.6198 425.749 39.9388V40.1439C425.749 40.3946 425.783 40.6306 425.852 40.8519C425.923 41.07 426.026 41.2621 426.159 41.4281C426.296 41.5941 426.46 41.7243 426.652 41.8187C426.848 41.9131 427.069 41.9603 427.316 41.9603C427.635 41.9603 427.906 41.8952 428.127 41.765C428.348 41.6348 428.542 41.4607 428.708 41.2426L429.255 41.6771C429.141 41.8497 428.996 42.014 428.82 42.1703C428.645 42.3265 428.428 42.4535 428.171 42.5511C427.917 42.6488 427.616 42.6976 427.268 42.6976ZM432.492 41.9554C432.707 41.9554 432.906 41.9115 433.088 41.8236C433.27 41.7357 433.42 41.6153 433.537 41.4623C433.654 41.306 433.721 41.1286 433.737 40.9301H434.597C434.58 41.2426 434.475 41.5339 434.279 41.8041C434.087 42.071 433.835 42.2875 433.522 42.4535C433.21 42.6163 432.867 42.6976 432.492 42.6976C432.095 42.6976 431.748 42.6276 431.452 42.4877C431.159 42.3477 430.915 42.1556 430.72 41.9115C430.528 41.6674 430.383 41.3874 430.285 41.0717C430.191 40.7526 430.144 40.4157 430.144 40.0609V39.8558C430.144 39.501 430.191 39.1657 430.285 38.85C430.383 38.531 430.528 38.2494 430.72 38.0052C430.915 37.7611 431.159 37.5691 431.452 37.4291C431.748 37.2891 432.095 37.2191 432.492 37.2191C432.906 37.2191 433.267 37.3038 433.576 37.473C433.885 37.639 434.128 37.8669 434.304 38.1566C434.483 38.4431 434.58 38.7686 434.597 39.1332H433.737C433.721 38.9151 433.659 38.7181 433.552 38.5424C433.448 38.3666 433.304 38.2266 433.122 38.1224C432.943 38.015 432.733 37.9613 432.492 37.9613C432.215 37.9613 431.983 38.0166 431.794 38.1273C431.608 38.2347 431.46 38.3812 431.35 38.5668C431.242 38.7491 431.164 38.9525 431.115 39.1771C431.07 39.3985 431.047 39.6247 431.047 39.8558V40.0609C431.047 40.292 431.07 40.5199 431.115 40.7445C431.161 40.9691 431.237 41.1726 431.345 41.3549C431.455 41.5372 431.604 41.6836 431.789 41.7943C431.978 41.9017 432.212 41.9554 432.492 41.9554ZM435.373 40.017V39.9047C435.373 39.5238 435.428 39.1706 435.539 38.8451C435.65 38.5163 435.809 38.2315 436.018 37.9906C436.226 37.7465 436.478 37.5577 436.774 37.4242C437.071 37.2875 437.403 37.2191 437.771 37.2191C438.142 37.2191 438.475 37.2875 438.771 37.4242C439.071 37.5577 439.325 37.7465 439.533 37.9906C439.745 38.2315 439.906 38.5163 440.017 38.8451C440.127 39.1706 440.183 39.5238 440.183 39.9047V40.017C440.183 40.3978 440.127 40.751 440.017 41.0765C439.906 41.4021 439.745 41.6869 439.533 41.931C439.325 42.1719 439.073 42.3607 438.776 42.4974C438.483 42.6309 438.151 42.6976 437.78 42.6976C437.409 42.6976 437.076 42.6309 436.779 42.4974C436.483 42.3607 436.229 42.1719 436.018 41.931C435.809 41.6869 435.65 41.4021 435.539 41.0765C435.428 40.751 435.373 40.3978 435.373 40.017ZM436.276 39.9047V40.017C436.276 40.2806 436.307 40.5297 436.369 40.764C436.431 40.9952 436.524 41.2002 436.647 41.3793C436.774 41.5583 436.932 41.6999 437.121 41.8041C437.31 41.905 437.53 41.9554 437.78 41.9554C438.028 41.9554 438.244 41.905 438.43 41.8041C438.618 41.6999 438.775 41.5583 438.898 41.3793C439.022 41.2002 439.115 40.9952 439.177 40.764C439.242 40.5297 439.274 40.2806 439.274 40.017V39.9047C439.274 39.6442 439.242 39.3985 439.177 39.1674C439.115 38.933 439.021 38.7263 438.894 38.5472C438.77 38.3649 438.614 38.2217 438.425 38.1176C438.239 38.0134 438.021 37.9613 437.771 37.9613C437.523 37.9613 437.305 38.0134 437.116 38.1176C436.931 38.2217 436.774 38.3649 436.647 38.5472C436.524 38.7263 436.431 38.933 436.369 39.1674C436.307 39.3985 436.276 39.6442 436.276 39.9047ZM442.214 38.3666V42.6H441.306V37.3168H442.165L442.214 38.3666ZM442.028 39.7582L441.608 39.7435C441.612 39.3822 441.659 39.0485 441.75 38.7426C441.841 38.4333 441.976 38.1648 442.155 37.9369C442.334 37.709 442.557 37.5332 442.824 37.4095C443.091 37.2826 443.4 37.2191 443.752 37.2191C443.999 37.2191 444.227 37.2549 444.436 37.3265C444.644 37.3949 444.825 37.5039 444.978 37.6537C445.131 37.8034 445.249 37.9955 445.334 38.2299C445.419 38.4642 445.461 38.7474 445.461 39.0795V42.6H444.558V39.1234C444.558 38.8467 444.51 38.6254 444.416 38.4594C444.325 38.2933 444.195 38.1729 444.025 38.098C443.856 38.0199 443.658 37.9808 443.43 37.9808C443.163 37.9808 442.94 38.028 442.761 38.1224C442.582 38.2168 442.438 38.347 442.331 38.5131C442.224 38.6791 442.146 38.8695 442.097 39.0844C442.051 39.2959 442.028 39.5205 442.028 39.7582ZM445.451 39.2601L444.846 39.4457C444.849 39.156 444.896 38.8776 444.987 38.6107C445.082 38.3438 445.217 38.1062 445.393 37.8978C445.572 37.6895 445.791 37.5251 446.052 37.4047C446.312 37.281 446.61 37.2191 446.945 37.2191C447.229 37.2191 447.479 37.2566 447.697 37.3314C447.919 37.4063 448.104 37.5219 448.254 37.6781C448.407 37.8311 448.522 38.028 448.601 38.2689C448.679 38.5098 448.718 38.7963 448.718 39.1283V42.6H447.81V39.1185C447.81 38.8223 447.762 38.5928 447.668 38.4301C447.577 38.264 447.447 38.1485 447.277 38.0834C447.111 38.015 446.913 37.9808 446.682 37.9808C446.483 37.9808 446.307 38.015 446.154 38.0834C446.001 38.1517 445.873 38.2461 445.769 38.3666C445.664 38.4838 445.585 38.6189 445.529 38.7719C445.477 38.9248 445.451 39.0876 445.451 39.2601ZM450.988 38.3324V44.6312H450.08V37.3168H450.91L450.988 38.3324ZM454.548 39.9144V40.017C454.548 40.4011 454.502 40.7575 454.411 41.0863C454.32 41.4118 454.187 41.695 454.011 41.9359C453.838 42.1768 453.625 42.364 453.371 42.4974C453.117 42.6309 452.826 42.6976 452.497 42.6976C452.162 42.6976 451.866 42.6423 451.608 42.5316C451.351 42.4209 451.133 42.2598 450.954 42.0482C450.775 41.8366 450.632 41.5827 450.524 41.2865C450.42 40.9903 450.349 40.6566 450.31 40.2855V39.7386C450.349 39.348 450.422 38.9981 450.529 38.6888C450.637 38.3796 450.778 38.1159 450.954 37.8978C451.133 37.6765 451.35 37.5088 451.604 37.3949C451.857 37.2777 452.15 37.2191 452.482 37.2191C452.814 37.2191 453.109 37.2842 453.366 37.4144C453.623 37.5414 453.84 37.7237 454.016 37.9613C454.191 38.1989 454.323 38.4838 454.411 38.8158C454.502 39.1446 454.548 39.5108 454.548 39.9144ZM453.64 40.017V39.9144C453.64 39.6508 453.612 39.4034 453.557 39.1722C453.501 38.9379 453.415 38.7328 453.298 38.557C453.184 38.378 453.037 38.238 452.858 38.1371C452.679 38.0329 452.466 37.9808 452.219 37.9808C451.991 37.9808 451.792 38.0199 451.623 38.098C451.457 38.1761 451.315 38.2819 451.198 38.4154C451.081 38.5456 450.985 38.6954 450.91 38.8646C450.839 39.0306 450.785 39.2032 450.749 39.3822V40.6469C450.814 40.8747 450.905 41.0896 451.022 41.2914C451.14 41.4899 451.296 41.6511 451.491 41.7748C451.687 41.8952 451.932 41.9554 452.229 41.9554C452.473 41.9554 452.683 41.905 452.858 41.8041C453.037 41.6999 453.184 41.5583 453.298 41.3793C453.415 41.2002 453.501 40.9952 453.557 40.764C453.612 40.5297 453.64 40.2806 453.64 40.017ZM458.933 41.3793V37.3168H459.841V42.6H458.977L458.933 41.3793ZM459.104 40.266L459.479 40.2562C459.479 40.6078 459.442 40.9333 459.367 41.2328C459.296 41.529 459.178 41.7862 459.016 42.0043C458.853 42.2224 458.64 42.3933 458.376 42.517C458.112 42.6374 457.792 42.6976 457.414 42.6976C457.157 42.6976 456.921 42.6602 456.706 42.5853C456.494 42.5105 456.312 42.3949 456.159 42.2386C456.006 42.0824 455.887 41.8789 455.803 41.6283C455.721 41.3776 455.681 41.0765 455.681 40.725V37.3168H456.584V40.7347C456.584 40.9724 456.61 41.1693 456.662 41.3256C456.717 41.4786 456.791 41.6006 456.882 41.6918C456.976 41.7797 457.08 41.8415 457.194 41.8773C457.312 41.9131 457.432 41.931 457.556 41.931C457.94 41.931 458.244 41.8578 458.469 41.7113C458.693 41.5616 458.854 41.3614 458.952 41.1107C459.053 40.8568 459.104 40.5752 459.104 40.266ZM463.43 37.3168V38.0101H460.573V37.3168H463.43ZM461.54 36.0326H462.443V41.2914C462.443 41.4704 462.471 41.6055 462.526 41.6967C462.582 41.7878 462.653 41.848 462.741 41.8773C462.829 41.9066 462.924 41.9213 463.024 41.9213C463.099 41.9213 463.177 41.9148 463.259 41.9017C463.343 41.8855 463.407 41.8724 463.449 41.8627L463.454 42.6C463.382 42.6228 463.288 42.6439 463.171 42.6635C463.057 42.6862 462.919 42.6976 462.756 42.6976C462.535 42.6976 462.331 42.6537 462.146 42.5658C461.96 42.4779 461.812 42.3314 461.701 42.1263C461.594 41.918 461.54 41.6381 461.54 41.2865V36.0326ZM466.682 42.6976C466.314 42.6976 465.98 42.6358 465.681 42.5121C465.384 42.3851 465.129 42.2077 464.914 41.9799C464.702 41.752 464.54 41.4818 464.426 41.1693C464.312 40.8568 464.255 40.515 464.255 40.1439V39.9388C464.255 39.5092 464.318 39.1267 464.445 38.7914C464.572 38.4528 464.745 38.1664 464.963 37.932C465.181 37.6976 465.428 37.5202 465.705 37.3998C465.982 37.2793 466.268 37.2191 466.564 37.2191C466.942 37.2191 467.268 37.2842 467.541 37.4144C467.818 37.5446 468.044 37.7269 468.22 37.9613C468.396 38.1924 468.526 38.4659 468.61 38.7816C468.695 39.0941 468.737 39.4359 468.737 39.807V40.2123H464.792V39.475H467.834V39.4066C467.821 39.1722 467.772 38.9444 467.688 38.723C467.606 38.5017 467.476 38.3194 467.297 38.1761C467.118 38.0329 466.874 37.9613 466.564 37.9613C466.359 37.9613 466.171 38.0052 465.998 38.0931C465.826 38.1778 465.677 38.3047 465.554 38.474C465.43 38.6433 465.334 38.85 465.266 39.0941C465.197 39.3383 465.163 39.6198 465.163 39.9388V40.1439C465.163 40.3946 465.197 40.6306 465.266 40.8519C465.337 41.07 465.44 41.2621 465.573 41.4281C465.71 41.5941 465.874 41.7243 466.066 41.8187C466.262 41.9131 466.483 41.9603 466.73 41.9603C467.049 41.9603 467.32 41.8952 467.541 41.765C467.762 41.6348 467.956 41.4607 468.122 41.2426L468.669 41.6771C468.555 41.8497 468.41 42.014 468.234 42.1703C468.059 42.3265 467.842 42.4535 467.585 42.5511C467.331 42.6488 467.03 42.6976 466.682 42.6976ZM470.695 38.1469V42.6H469.792V37.3168H470.671L470.695 38.1469ZM472.346 37.2875L472.341 38.1273C472.266 38.111 472.194 38.1013 472.126 38.098C472.061 38.0915 471.986 38.0883 471.901 38.0883C471.693 38.0883 471.509 38.1208 471.35 38.1859C471.19 38.251 471.055 38.3422 470.944 38.4594C470.834 38.5765 470.746 38.7165 470.681 38.8793C470.619 39.0388 470.578 39.2146 470.559 39.4066L470.305 39.5531C470.305 39.2341 470.336 38.9346 470.397 38.6547C470.463 38.3747 470.562 38.1273 470.695 37.9125C470.829 37.6944 470.998 37.5251 471.203 37.4047C471.411 37.281 471.659 37.2191 471.945 37.2191C472.01 37.2191 472.085 37.2273 472.17 37.2435C472.255 37.2566 472.313 37.2712 472.346 37.2875ZM476.257 41.1986C476.257 41.0684 476.228 40.948 476.169 40.8373C476.114 40.7233 475.998 40.6208 475.822 40.5297C475.65 40.4353 475.389 40.3539 475.041 40.2855C474.748 40.2237 474.483 40.1504 474.245 40.0658C474.011 39.9812 473.811 39.8786 473.645 39.7582C473.482 39.6377 473.356 39.4961 473.269 39.3334C473.181 39.1706 473.137 38.9802 473.137 38.7621C473.137 38.5538 473.182 38.3568 473.273 38.1713C473.368 37.9857 473.5 37.8213 473.669 37.6781C473.841 37.5349 474.048 37.4226 474.289 37.3412C474.53 37.2598 474.799 37.2191 475.095 37.2191C475.518 37.2191 475.879 37.294 476.179 37.4437C476.478 37.5935 476.708 37.7937 476.867 38.0443C477.027 38.2917 477.106 38.5668 477.106 38.8695H476.203C476.203 38.723 476.159 38.5814 476.071 38.4447C475.987 38.3047 475.861 38.1892 475.695 38.098C475.533 38.0069 475.332 37.9613 475.095 37.9613C474.844 37.9613 474.641 38.0004 474.484 38.0785C474.331 38.1534 474.219 38.2494 474.147 38.3666C474.079 38.4838 474.045 38.6075 474.045 38.7377C474.045 38.8353 474.061 38.9232 474.094 39.0013C474.13 39.0762 474.191 39.1462 474.279 39.2113C474.367 39.2732 474.491 39.3317 474.65 39.3871C474.81 39.4424 475.013 39.4978 475.261 39.5531C475.694 39.6508 476.05 39.7679 476.33 39.9047C476.61 40.0414 476.818 40.209 476.955 40.4076C477.092 40.6062 477.16 40.847 477.16 41.1302C477.16 41.3614 477.111 41.573 477.014 41.765C476.919 41.9571 476.781 42.1231 476.599 42.2631C476.42 42.3998 476.205 42.5072 475.954 42.5853C475.707 42.6602 475.428 42.6976 475.119 42.6976C474.654 42.6976 474.26 42.6146 473.938 42.4486C473.615 42.2826 473.371 42.0677 473.205 41.8041C473.039 41.5404 472.956 41.2621 472.956 40.9691H473.864C473.877 41.2165 473.949 41.4135 474.079 41.5599C474.209 41.7032 474.369 41.8057 474.558 41.8676C474.746 41.9261 474.934 41.9554 475.119 41.9554C475.367 41.9554 475.573 41.9229 475.739 41.8578C475.909 41.7927 476.037 41.7032 476.125 41.5892C476.213 41.4753 476.257 41.3451 476.257 41.1986ZM478.361 42.1215C478.361 41.9685 478.409 41.8399 478.503 41.7357C478.601 41.6283 478.741 41.5746 478.923 41.5746C479.105 41.5746 479.243 41.6283 479.338 41.7357C479.436 41.8399 479.484 41.9685 479.484 42.1215C479.484 42.2712 479.436 42.3982 479.338 42.5023C479.243 42.6065 479.105 42.6586 478.923 42.6586C478.741 42.6586 478.601 42.6065 478.503 42.5023C478.409 42.3982 478.361 42.2712 478.361 42.1215ZM483.098 41.9554C483.312 41.9554 483.511 41.9115 483.693 41.8236C483.876 41.7357 484.025 41.6153 484.143 41.4623C484.26 41.306 484.326 41.1286 484.343 40.9301H485.202C485.186 41.2426 485.08 41.5339 484.885 41.8041C484.693 42.071 484.44 42.2875 484.128 42.4535C483.815 42.6163 483.472 42.6976 483.098 42.6976C482.701 42.6976 482.354 42.6276 482.058 42.4877C481.765 42.3477 481.521 42.1556 481.325 41.9115C481.133 41.6674 480.988 41.3874 480.891 41.0717C480.796 40.7526 480.749 40.4157 480.749 40.0609V39.8558C480.749 39.501 480.796 39.1657 480.891 38.85C480.988 38.531 481.133 38.2494 481.325 38.0052C481.521 37.7611 481.765 37.5691 482.058 37.4291C482.354 37.2891 482.701 37.2191 483.098 37.2191C483.511 37.2191 483.872 37.3038 484.182 37.473C484.491 37.639 484.733 37.8669 484.909 38.1566C485.088 38.4431 485.186 38.7686 485.202 39.1332H484.343C484.326 38.9151 484.265 38.7181 484.157 38.5424C484.053 38.3666 483.91 38.2266 483.728 38.1224C483.549 38.015 483.339 37.9613 483.098 37.9613C482.821 37.9613 482.588 38.0166 482.399 38.1273C482.214 38.2347 482.066 38.3812 481.955 38.5668C481.848 38.7491 481.77 38.9525 481.721 39.1771C481.675 39.3985 481.652 39.6247 481.652 39.8558V40.0609C481.652 40.292 481.675 40.5199 481.721 40.7445C481.766 40.9691 481.843 41.1726 481.95 41.3549C482.061 41.5372 482.209 41.6836 482.395 41.7943C482.583 41.9017 482.818 41.9554 483.098 41.9554ZM485.979 40.017V39.9047C485.979 39.5238 486.034 39.1706 486.145 38.8451C486.255 38.5163 486.415 38.2315 486.623 37.9906C486.831 37.7465 487.084 37.5577 487.38 37.4242C487.676 37.2875 488.008 37.2191 488.376 37.2191C488.747 37.2191 489.081 37.2875 489.377 37.4242C489.676 37.5577 489.93 37.7465 490.139 37.9906C490.35 38.2315 490.511 38.5163 490.622 38.8451C490.733 39.1706 490.788 39.5238 490.788 39.9047V40.017C490.788 40.3978 490.733 40.751 490.622 41.0765C490.511 41.4021 490.35 41.6869 490.139 41.931C489.93 42.1719 489.678 42.3607 489.382 42.4974C489.089 42.6309 488.757 42.6976 488.386 42.6976C488.015 42.6976 487.681 42.6309 487.385 42.4974C487.089 42.3607 486.835 42.1719 486.623 41.931C486.415 41.6869 486.255 41.4021 486.145 41.0765C486.034 40.751 485.979 40.3978 485.979 40.017ZM486.882 39.9047V40.017C486.882 40.2806 486.913 40.5297 486.975 40.764C487.036 40.9952 487.129 41.2002 487.253 41.3793C487.38 41.5583 487.538 41.6999 487.727 41.8041C487.915 41.905 488.135 41.9554 488.386 41.9554C488.633 41.9554 488.85 41.905 489.035 41.8041C489.224 41.6999 489.38 41.5583 489.504 41.3793C489.628 41.2002 489.72 40.9952 489.782 40.764C489.847 40.5297 489.88 40.2806 489.88 40.017V39.9047C489.88 39.6442 489.847 39.3985 489.782 39.1674C489.72 38.933 489.626 38.7263 489.499 38.5472C489.375 38.3649 489.219 38.2217 489.03 38.1176C488.845 38.0134 488.627 37.9613 488.376 37.9613C488.129 37.9613 487.91 38.0134 487.722 38.1176C487.536 38.2217 487.38 38.3649 487.253 38.5472C487.129 38.7263 487.036 38.933 486.975 39.1674C486.913 39.3985 486.882 39.6442 486.882 39.9047ZM492.819 38.3666V42.6H491.911V37.3168H492.771L492.819 38.3666ZM492.634 39.7582L492.214 39.7435C492.217 39.3822 492.264 39.0485 492.355 38.7426C492.447 38.4333 492.582 38.1648 492.761 37.9369C492.94 37.709 493.163 37.5332 493.43 37.4095C493.697 37.2826 494.006 37.2191 494.357 37.2191C494.605 37.2191 494.833 37.2549 495.041 37.3265C495.249 37.3949 495.43 37.5039 495.583 37.6537C495.736 37.8034 495.855 37.9955 495.939 38.2299C496.024 38.4642 496.066 38.7474 496.066 39.0795V42.6H495.163V39.1234C495.163 38.8467 495.116 38.6254 495.021 38.4594C494.93 38.2933 494.8 38.1729 494.631 38.098C494.462 38.0199 494.263 37.9808 494.035 37.9808C493.768 37.9808 493.545 38.028 493.366 38.1224C493.187 38.2168 493.044 38.347 492.937 38.5131C492.829 38.6791 492.751 38.8695 492.702 39.0844C492.657 39.2959 492.634 39.5205 492.634 39.7582ZM496.057 39.2601L495.451 39.4457C495.454 39.156 495.502 38.8776 495.593 38.6107C495.687 38.3438 495.822 38.1062 495.998 37.8978C496.177 37.6895 496.397 37.5251 496.657 37.4047C496.918 37.281 497.215 37.2191 497.551 37.2191C497.834 37.2191 498.085 37.2566 498.303 37.3314C498.524 37.4063 498.71 37.5219 498.859 37.6781C499.012 37.8311 499.128 38.028 499.206 38.2689C499.284 38.5098 499.323 38.7963 499.323 39.1283V42.6H498.415V39.1185C498.415 38.8223 498.368 38.5928 498.273 38.4301C498.182 38.264 498.052 38.1485 497.883 38.0834C497.717 38.015 497.518 37.9808 497.287 37.9808C497.089 37.9808 496.913 38.015 496.76 38.0834C496.607 38.1517 496.478 38.2461 496.374 38.3666C496.27 38.4838 496.19 38.6189 496.135 38.7719C496.083 38.9248 496.057 39.0876 496.057 39.2601Z" fill="white"/>
</svg>
