<?xml version="1.0" encoding="UTF-8"?>
<svg id="Layer_2" xmlns="http://www.w3.org/2000/svg" viewBox="0 0 514.1 355.8">
  <defs>
    <style>
      .cls-1 {
        fill: #ec1d23;
      }

      .cls-2 {
        fill: #0f0f0f;
      }
    </style>
  </defs>
  <g id="Layer_1-2" data-name="Layer_1">
    <g>
      <g>
        <g>
          <path class="cls-1" d="M341.9,251c-28.2,57.6-72.3,94.5-137.1,102.9-81.9,10.6-142-23-183.7-92.6-30.5-60-27.1-119,5.1-177.2-15,46.1-13.8,91.6,6.7,136,16.8,36.4,43.1,64.5,78.6,83.4,39.5,21,81.2,26.6,124.8,16.5,43.7-10.1,78.5-33.7,105.6-69Z"/>
          <path class="cls-1" d="M97.7,228c-23.6-31.3-34.3-83-13.1-132.4C106.6,44.3,159,11.5,213.6,12.6c57.6,1.2,104.8,38.3,121.7,79-55.1-54.5-116.5-64.3-184.6-23.8-54.9,41.6-70.6,95.9-53,160.1Z"/>
        </g>
        <g>
          <path class="cls-1" d="M151.1,124.3c8.6-1.4,17.8-.6,26.5-.7,29.6,0,59.1.1,88.7,0-11.8,7.2-20.1,14.8-27.8,26.3-9.7,0-19.4,0-29.1,0v74.9c-10.4,0-20.9,0-31.3,0,0-24.9,0-49.9,0-74.9h-47.4c6.7-8.5,12.6-18,20.4-25.6h0Z"/>
          <path class="cls-1" d="M379.1,156.2c10.2-.2,20.3-.2,30.4-.2,1,2.4,2.1,4.8,3.1,7.2,23.9,2,48.1-.3,72,1.3,10.9,1.1,22.9,5,27.4,16,4.4,11.8,1.8,28.6-9.2,36.1-10.5,7.6-24.8,7.9-37.2,8.1-29.7,0-59.4,0-89.1,0,6.7-8.7,13.3-17.3,20-25.9,24.9-.2,49.9.2,74.8,0,5.6-.5,13.1,0,12.3-8,.9-5.2-5.7-6.1-9.5-6.4-19.6-.9-39.4.4-59-.4-9.5-.4-19.2-2.3-26.6-8.6-5.6-4.6-7.1-12.6-9.5-19.2h0Z"/>
        </g>
      </g>
      <g>
        <path class="cls-2" d="M303.5,123.6c51.8,0,103.7,0,155.5,0-6.7,8.8-13.4,17.6-20.2,26.3-43.2-.1-86.5,0-129.7-.1-10.3.1-20.2-.1-28.8,6.4-9.4,6.9-12.1,20.2-6,30.2,5.9,9.1,16,12,26.3,12.3,23.6.4,47.2-.1,70.8.1-6.6,8.7-13.3,17.3-20.1,26-18.8-.3-37.6.6-56.3-.4-19.2-1.1-38.5-10.1-48.6-27-10.5-17.3-8.5-40.6,5.6-55.3,13.7-14.3,32.2-18.4,51.4-18.5h0Z"/>
        <path class="cls-2" d="M472.5,124.4c4.3-.8,8.6-1,12.9-1.3-6.6,9-13.5,17.9-20.2,26.8-4.3,0-8.7,0-13,0,6.7-8.4,12.5-18.1,20.3-25.5h0Z"/>
        <path class="cls-2" d="M498.1,124.7c4.4-1.1,9-1.3,13.5-1.8-6.5,9.2-13.5,18.1-20.3,27-4.3,0-8.6,0-12.9,0,6.5-8.3,12.3-17.6,19.7-25.2h0Z"/>
        <path class="cls-2" d="M194.5,1.6c-9.8,1.5-19.4,2.5-28.8,4.6-15.3,3.4-29,10.6-41.9,19.3-16.2,10.9-30.6,23.5-42,39.5-12.9,18.2-20.7,38.4-24.3,60.3-6,37.2,2.2,71.1,22.7,102.4,7.4,11.3,15.9,21.8,26,30.9,12.6,11.2,27.1,19.1,43.1,24.4,1.4.5,2.8.9,4.1,1.7-50.9-7.3-89.7-33.1-111.7-79.8-26.1-55.2-18.9-108.2,20.2-154.9C96.2,9,141.8-5.2,194.5,1.6Z"/>
      </g>
    </g>
  </g>
</svg>